<svg width="883.77" height="1139.7" version="1.1" viewBox="0 0 883.77 1139.7" xml:space="preserve" xmlns="http://www.w3.org/2000/svg" xmlns:cc="http://creativecommons.org/ns#" xmlns:dc="http://purl.org/dc/elements/1.1/" xmlns:rdf="http://www.w3.org/1999/02/22-rdf-syntax-ns#"><metadata><rdf:RDF><cc:Work rdf:about=""><dc:format>image/svg+xml</dc:format><dc:type rdf:resource="http://purl.org/dc/dcmitype/StillImage"/><dc:title/></cc:Work></rdf:RDF></metadata><g transform="matrix(1.3333 0 0 -1.3333 0 1139.7)"><g transform="scale(.1)" fill="#e6e6e6"><path d="m6530.9 4569.7c-57.21 59.53-138.9 73.89-224.8 81.88-89.38 8.59-183.24 10.37-258.64 49.61-34.55 17.92-48.12 45.01-83.94 60.41-30.76 49.45-69.94 104.09-53.71 191.9 19.72 30.05 40.15 59.37 77.22 71.07 109.24-1.33 56.52-176.05-13.43-74.63-7.69-32.27 19.72-50.64 30.22-74.62 63.64-19.25 102.8 21.32 110.79 71.07 18.18 113.12-173.04 192.05-107.45 326.95 24.35 49.89 106.61 84.24 171.23 85.28 172.47 2.81 351.25-113.27 335.73-316.28-25.04-79.22-168.14-90.76-184.66 3.55 8.82 35.69 43.93 43.54 60.44 71.08-30.65 13.03-68.69-23.26-77.21-49.76-46.17-143.48 151.2-218.54 241.71-127.92 39.02 55.67 56.24 116.67 56.79 176.64 1.4 153.85-107.85 301.92-248.15 342.19-133.32 38.35-224.94-23.98-342.45-39.09-142.53-18.36-266.61 102.61-278.64 227.43-11.75 121.43 55.12 194.72 134.3 227.44 89.51 11.26 177.09-32.87 171.21-117.27-2.66-39.24-45.75-89.44-87.29-81.74-32.59 6.08-17.64 49.02-53.71 56.87-8.96-75.52 82.25-99.65 154.43-67.52 165.34 138.74-19.45 434.43-218.23 330.49-36.92-19.25-62.52-63.97-117.49-53.31-86.03 16.58-103.1 169.25-67.16 238.1 34.28 65.44 109.26 92.4 204.81 103.05 113.43 12.74 251.36-12.73 335.72 21.33 18.6 7.55 45.6 34.05 60.42 46.19 50.23 41.32 93.72 148.67 100.72 216.78 13.43 131.34-33.72 232.91-124.22 294.96-50.5 25.76-90.5 39.98-157.79 35.53-17.33-12.43-39.31-19.99-60.42-28.42-28.83-43.39-87.02-90.48-87.29-167.03-0.29-71.81 62.39-162.87 130.93-127.93-79.6 19.69-82.11 163.77-12.16 198.86 7.68 3.84 16.21 6.36 25.59 7.25 29.37 2.82 77.21-22.21 90.64-31.98 116.8-84.99 21.27-264.75-67.14-309.17-189.83-95.5-449.17 37.01-392.8 298.5 30.64 14.22 28.81 38.95 57.07 42.65 57.35 7.7 73.71-76.85 30.22-95.95-16.51-7.25-29.94 6.81-40.28-3.55 52.46-64.7 125.47 28.57 127.56 95.95-8.95 107.79-149.53 162.28-221.58 81.74-75.94-123.5 2.94-335.39-87.27-444.21-148.16-130.01-328.32 73.88-248.45 255.86 47.84 116.24 214.44-31.83 90.65-78.18 12.31-32.14 43.36-1.04 63.78 7.11 63.51 96.83-0.96 243.13-130.92 209.66-34.7-42.2-100.86-87.06-167.87-53.31-38.46 42.95-60.29 115.65-53.72 184.79 15.96 169.25 143.81 131.94 275.31 138.61 229.82 11.54 272.91 305.46 100.71 429.99-68.82 16.73-128.27 0.89-161.15-39.09-36.52-56.12-28.81-163.03 33.58-174.14-42.39 46.65-32.04 147.63 50.35 152.81 66.02-9.02 94.56-76.84 80.57-149.25-27.82-42.05-60.01-79.81-110.78-88.84-99.87-17.77-183.39 91.65-288.72 46.2-51.76-32.88-89.39-80.7-144.37-110.17-166.74-26.06-233.89 192.64-151.07 316.28 51.89 77 231.36 63.37 198.07-74.63-41.13-68.11-91.34-33.31-107.42 17.77-21.4-55.97 46.43-95.51 100.71-88.84 103.65 12.58 153.03 146.44 80.58 234.54-56.51 69.15-161.42 22.36-228.3 53.31-47 21.62-91.21 88.55-90.64 163.47 0.84 121.57 133.03 204.04 265.21 184.79 73.17-20.14 125.63-187.32-10.07-163.47-15.66 10.07-9.5 60.26-30.21 53.31-10.9-51.83 50.07-104.54 104.08-92.4 47.84 10.8 84.76 70.92 87.28 113.72 13.84 238.38-310.68 237.06-416.29 110.16-129.81-124.38-35.39-486.11-265.23-504.62-12.72 9.02-27.27 16.13-40.28 24.88-68.4 173.98 69.24 314.05 141 419.32 74.98 150.89 24.61 361.45-147.71 358.93-128.84-1.93-188.44-157.7-94.01-255.87 18.6 4 29.38-14.21 43.64-3.55-24.75 33.32-56.65 29.62-57.07 74.63-0.56 63.81 78.61 123.34 141 99.5 9.93-13.18 19.16-27.1 26.86-42.64 19.45-140.23-84.49-253.36-221.57-238.1-128.84 37.91-232.49 110.02-214.86 291.41 6.43 66.77 32.45 110.3 50.36 170.57 26.02 40.87 92.46 92.25 157.79 71.07 95.94-31.1-25.18-199.3-70.51-88.84-10.35-44.13 40.29-74.63 73.86-74.63 121 0.15 100.15 187.17 33.57 241.65-86.86 71.08-212.21-0.59-265.22-63.96-52.59-62.79-62.52-146.3-61.56-234.54 1.55-131.34 27.42-273.2-25.73-373.15-133.03-154.88-345.93 91.36-208.15 227.44 120.87 107.05 146.88-150.59 16.79-60.41 61.4-131.19 184.92-18.22 151.07 103.06-18.88 67.51-104.62 110.46-181.29 103.06-56.79-38.21-120.02-69.6-130.94-156.36-65.46 158.87-262.69 264-483.43 223.88-19.58-3.56-44.34-21.63-63.78-7.11-89.8-37.61-156.12-63.82-221.58-124.38-98.76-91.36-124.09-276.45-318.95-245.21-93.02 44.28-175.69 148.82-137.64 287.86 23.36 25.02 44.77 52.12 80.57 63.96 20.15-18.96 28.82-2.08 50.35-10.67 86.61-34.64 30.79-198.26-50.35-113.71 10.35-64.56 122.13-40.28 144.37 7.11 46.99 171.61-82.95 296.58-235.01 234.54-51.63-44.86-97.49-93.73-107.44-170.58-14.4-111.64 61.42-227.44 33.58-351.81-21.54-17.47-30.49-48.27-53.71-63.97-231.09-19.4-155.13 344.86-322.3 412.23-96.24 38.79-236.12-51.68-194.72-191.9 19.3-59.38 113.59-142.89 157.79-60.41-95.4-49.31-129.95 118.3-40.29 127.93 150.8-24.58 107.02-309.47-23.5-323.38-110.23 18.5-200.46 78.32-208.15 188.34-13.56 192.34 186.19 301.03 100.72 486.85-53.85 70.04-192.34 53.91-241.72-10.66-56.93-51.23-14.55-202.25 50.36-138.59-19.17 15.4-29.38-2.81-40.28 21.32-20.43 105.43 113.58 123.2 127.57 35.54 19.58-122.75-111.77-143.48-157.8-245.21-41.82-92.39-28.95-197.22 16.8-291.4 60.57-104.83 239.2-115.94 302.14-216.77 89.11-142.74-164.09-255.27-204.78-92.39 12.86 77.14-27.42 169.38-134.3 152.8-76.24-17.77-117.78-189.52-10.07-206.11-3.5 33.02-37.07 34.2-43.64 63.96 61.13 118.46 148.69-46.04 100.72-120.83-69.25-67.51-189.27-5.62-221.58 78.19-38.33 99.06 13.29 206.56 0 277.19 39.59 142.73-106.31 270.52-245.08 245.2-37.774-6.96-96.52-59.52-104.07-95.95-16.508-79.81 61.265-210.41 127.57-149.25-15.11 1.77-25.18-1.78-36.93-3.56-27 19.4-54.555 51.09-47 95.95 26.301 30.21 56.09 56.71 100.71 67.52 40.85 3.41 81.7-29.31 94.01-63.96 32.17-89.88-14.27-121.27-50.36-174.13-34.83-51.09-58.33-125.57-57.07-184.79 4.33-203.16 266.62-154.45 261.87-362.48-43.93-152.66-310.56-25.47-191.37 81.73 24.62-8.29 31.34-35.53 36.93-63.96 41.69 47.38-24.2 116.38-80.58 117.27-154.71-8.74 38.05-282.67-93.999-302.06-142.12-20.88-249.84 229.21-211.5 373.13 32.73 25.77 45.18 70.34 90.644 67.52 85.747-5.33 96.383-166.13 0-170.58-20.566-0.89-20.425 20.14-43.644 10.67 17.484-60.71 102.4-6.96 117.5 7.1 73.159 68.26 12.59 234.69-83.938 252.32-145.76 26.49-225.91-108.24-208.14-248.76 16.23-128.09 154.02-227 130.94-373.13-23.222-146.6-244.38-95.22-265.23 21.31-4.328 24.43 0.988 66.78 23.508 74.63 69.664 24.43 67.562-81.88 36.929-106.61 103.52 40.42 38.887 182.28-43.644 188.35-134.71 10.06-133.73-184.95-80.571-277.19 51.895-53.31 82.809-106.17 174.58-110.17 57.211-2.51 118.48 21.77 177.93 7.11 82.114-20.13 125.76-214.85 20.145-238.1-91.207-20.13-160.59 204.93-282 78.19-44.629-77.3-69.246-204.49 13.426-259.42 59.453-20.29 148.98 21.62 107.43 81.74-2.793-74.49-94-20.15-90.644 35.53 1.398 22.81 32.59 55.37 53.719 60.41 193.46 46.64 248.86-385.43 20.14-362.48-66.441 45.76-95.683 130.9-218.22 117.28-29.508-12.59-52.317-32.28-70.5-56.86-17.067-68.26-26.719-142.45 20.144-177.69 27.137-20.43 115.68-27.69 104.07 28.44-15.527 9.17-21.543-22.07-40.289-21.33-15.523 13.18-27.558 30.06-33.57 53.31 15.109 28.28 34.828 56.71 70.504 53.3 182.13-173.98-81.137-416.52-255.15-358.93-42.805 14.22-88.688 79.82-83.93 135.04 6.715 77.01 107.01 102.92 107.43 0-7.977-24.27-41.407 0.45-40.282-31.97 154.85 12.73 34.688 240.76-83.929 184.79-99.883-43.39-105.9-238.1-47.008-334.05 64.066-62.33 130.51-84.4 228.3-63.97 72.039 14.96 138.34 66.19 204.78 71.08 141.14 10.51 213.32-124.67 188.01-262.97-20.981-20.74-27.563-48.27-57.075-53.31-36.375-6.22-56.656 24.28-87.293 28.43-32.171 4.3-66.863-6.22-87.285-24.87-102.82-93.73-2.383-314.95 141-223.89 17.489 24.43 13.575 80.7-20.14 81.74-3.91-23.1 14.55-22.51 10.074-46.21-24.199-46.04-82.395-11.84-94.004 24.88 16.645 164.36 165.63 60.86 198.08-14.21 23.074-53.15 18.738-134.15-3.355-177.68-79.598-156.51-249.42-37.31-329.01 63.96-141.01 58.34-249.84-35.68-245.08-174.13 12.023-27.54 25.312-53.75 40.281-78.18 29.375 0.29 43.363-15.69 67.144-21.32 16.922 9.33 37.625 14.66 57.075 21.32 7.554 17.18 25.453 57.3-3.356 63.97-13.851-9.48 3.356-35.98-13.437-46.2-53.43-17.48-73.575 24.72-77.207 71.07 22.656 41.46 62.105 70.78 120.86 46.2 87.988-36.87 163.39-179.61 144.37-309.17-26.027-61.3-90.793-147.48-171.22-163.47-96.524-19.25-191.92 61.89-174.58 152.8 40.843 95.66 160.87-13.16 77.214-71.07 93.024 3.27 72.043 158.59 0 181.25-151.35 38.2-225.63-148.67-147.72-270.09 63.926-99.64 260.33-138.74 359.23-49.75 28.395 25.62 33.016 62.34 57.078 103.06 32.586 55.23 94.7 141.4 144.36 167.02 99.32 51.24 225.07-63.52 198.08-170.58-48.399-49.89-135.13-58.78-181.29-117.26-42.246-53.46-45.324-132.97-26.863-199.01 16.507-16.87 33.859-32.87 47.007-53.3 98.332-70.33 271.51 32.56 171.22 131.47-28.82-5.31-65.179 22.97-67.144-14.2 11.613-10.37 28.117 6.37 36.933-7.11 39.446-118.46-125.06-64.86-104.08 21.31 18.188 115.21 143.11 188.06 241.72 120.84 43.508-56.43 74.844-125.28 60.43-216.78-63.504-120.53-224.51-301.17-97.356-461.99 45.043-34.92 126.6-56.41 198.08-31.97 35.66 22.65 49.37 68.55 67.14 110.15-13.15 34.81-32.17 113.58-90.64 106.62-15.81-1.91-66.309-36.72-33.57-60.41 3.49 13.62 15.67 27.84 33.57 35.55 112.61-87.97-70.923-179.04-104.08-60.43-47.277 169.1 134.71 282.23 278.65 223.89 67.15-43.09 69.94-130.74 80.58-213.23 13.99-108.98 40.42-169.23 0-248.75-66.45-130.6-179.9-271.26-211.51-422.89-5.87-47.67-18.88-94.47-23.5-152.81-33.71-182.73 43.92-358.48 97.36-533.05 35.39-115.64 21.68-229.35 43.64-334.06 11.05-52.26 38.75-100.68 50.36-149.26 18.33-77.28 6.57-160.48 26.86-234.53 17.91-65.45 61.55-120.09 83.93-181.25 24.9-68.4 26.02-112.38 26.85-188.34 0.71-54.78 16.09-120.08 20.15-174.12 4.76-63.83-0.7-169.39 23.5-216.78 17.77-34.805 73.16-67.813 104.08-110.16 72.6-99.804 129.39-225.96 188-323.38 93.86-55.098 211.51-35.704 282.01-117.29 19.58-22.656 21.26-64.707 43.65-85.293 11.05-10.214 36.22-11.386 53.71-21.308 40.29-22.949 124.08-119.06 167.86-124.4 55.96-6.816 188.58 23.985 231.66 42.633-0.99 63.695 29.37 93.149 50.35 131.51 30.08 54.941 72.73 125.57 104.07 159.92 17.91 19.687 49.67 33.32 47.01 63.945-3.5 39.707-120.59 120.84-171.21 138.61-75 26.344-117.65 4.141-154.45-39.101-24.48 48.277-96.94 66.777-157.79 46.211-58.19 49.004-19.86 101.88-26.86 181.23-9.51 106.46-140.44 185.53-77.21 277.19 177.93-24.89 174.16-242.11 288.72-334.05 135.4-39.981 316.57-11.25 298.8 174.12-57.22 77.15-137.8 133.27-194.72 213.23-62.26 87.51-88.55 141.4-114.15 248.75-15.54 65.31-35.26 134.31-53.72 209.67-14.54 18.96-26.85 40.27-43.64 56.87-104.49 48.56-249.42 71.95-288.73 177.68 92.19-13.03 209.14-27.09 285.37-17.78-109.11 33.77-226.89 58.34-308.86 120.82-0.71 24.46 1.11 46.21 16.78 53.32 248.02-36.58 467.64-106.01 705.03-145.7-211.93 90.76-481.49 120.53-678.16 227.44-7.28 14.81-19.18 24.73-26.87 39.08 19.59 35.1 49.66 73.46 97.36 67.52 8.39 53.89 23.37 128.25 73.86 135.04 13.57 1.78 30.78-8.57 43.65-10.64 98.19-15.71 213.19-42.07 305.51-56.88-88.83 65.9-230.81 75.67-345.8 113.73 99.47 187.15 432.1 76.41 627.8 110.16-51.47 25.18-141.85 1.91-194.71 21.33 57.07 37.3 174 9.18 241.7 39.08-173.15 6.37-387.46-30.94-560.65-21.31 152.75 106.58 382.03 105.26 600.96 127.91-199.2 6.37-422.04-19.37-637.89-35.53-1.39 16.88 4.9 25.63 6.72 39.11 84.9 35.37 184.93 39.08 271.95 60.41-65.9 10.64-150.38 2.52-204.8 17.75 41.11 75.53 145.06 47.52 228.29 53.32 128.83 8.87 268.57 29.16 409.58-7.13-112.19-47.36-263.68-46.33-376.02-71.05 139.61 6.05 278.23 17.46 423.02 35.52 90.36 11.25 179.48 41.33 265.22 39.09 49.94-1.33 66.72 4.45 104.08 14.21 84.07 21.94 181.7 11.57 251.8-17.77-116.39-45.74-294.32-32.56-412.95-56.85 48.11-7.99 126.46 8.9 177.93-10.65-160.86-20.88-318.38-52.73-470.01-46.21 95.68-31.84 229.84-17.91 329.01-35.55 158.34-28.12 333.9 13.34 402.87-88.82-12.03-20.14 10.76-33.17 3.35-46.2-138.05 51.39-317.12 83.07-466.65 81.74-78.48-42.05-225.64-10.08-302.14-24.88 163.51-14.22 364.53 9.92 540.5-21.33 43.22-7.69 92.74-25.92 134.29-39.08 58.76-18.65 133.88-33.17 161.16-85.29-73.31-11.86-173.05 5.91-235.02-14.22 64.91-19.4 166.47-13.64 231.65-49.75-4.47-11.83-16.92-15.25-20.14-28.42-142.27-20.74-320.9 1.6-433.09-31.99 136.68 0.45 300.89 12.44 439.8-10.66-74.98-28.42-162.96-43.09-238.36-71.08 89.81 5.04 199.05 32.29 305.51 39.1 28.96-47.53 77.21-74.62 90.65-138.61-33.02-27.67-79.33-31.52-120.87-39.08-165.2-30.06-352.36-55.08-503.59-95.96 220.75 25.76 463.6 67.81 684.89 35.55 3.06-22.81 10.21-41.31 13.42-63.97-16.23-7.69-35.94-11.7-43.65-28.43 45.33-16.72 103.1-39.83 104.08-99.5-159.61-45.02-325.23-61.89-496.87-92.4 172.07 9.92 363 56.43 533.8 21.33 7.69-48.71 29.38-82.62 40.28-127.95-71.9-11.25-124.21-6.5-181.29-24.86-91.33-62.35-147.01-136.24-258.5-170.59-70.78-21.76-121.57-9.47-201.43 0-70.08 8.3-144.22 39.55-211.5 28.44-64.64-10.67-97.92-99.65-97.51-174.28 0.14-19.1 2.38-37.46 6.86-53.16 63.64-84.26 165.9-127.64 295.43-142.13 78.34 23.67 152.76 51.52 235.01 71.05 104.49-30.64 109.25-104.23 97.36-220.31-7.83-77.011 8.67-177.24-16.79-227.44-62.8 78.32-234.87 115.2-288.71 3.554-7.29-49.765-3.51-88.691-10.07-135.04v-0.156c-10.49-73.281-65.48-127.93-47.01-198.87 7.56-29.16 28.67-65.141 40.29-92.383 46.86-110.47 96.8-225.22 137.64-344.71 95.54-82.344 229.42 19.688 332.36 39.082 16.93 35.406 43.24 60.859 73.87 81.738 51.75-1.172 89.67-38.496 134.29-28.418 57.62 13.028 91.07 110.45 164.5 106.6 40.29-2.071 61.83-41.153 117.5-14.223 59.45 89.887 135.41 162.29 201.44 245.22 21.54 203.14 100.29 404.38 188.01 568.58 92.74 125.11 114.98 297.93 157.78 461.99 22.67 86.76 75.4 165.23 83.93 255.86 116.1 219.88 243.27 371.95 318.93 618.34 28.7 93.14 68.42 188.92 80.59 284.29 5.31 41.18-4.05 86.78-3.36 135.04 1.26 84.24 7.56 174.44 0 245.2-6.16 58.49-41.83 126.91-33.57 188.36 4.05 30.64 35.52 68.4 36.93 103.06 1.95 49.01-38.2 94.3-50.36 149.24-9.93 44.42-4.2 95.96-10.07 142.15-7.28 56.72-28.41 112.54-30.23 163.48-2.64 74.31 33.16 128.22 43.66 202.56 23.36 31.23 79.17 89.72 137.63 63.96 12.18-5.33 18.75-20.14 30.23-31.99 20-144.22-138.91-165.53-120.86-319.83 0.96-113.73 117.09-170.87 214.85-117.26 48.97 42.48 40.58 178.57-30.21 177.68-4.46-23.25 27.98-24.89 26.86-56.86-2.23-65.61-69.8-43.24-87.28-3.56-52.19 118.17 85.74 274.83 198.07 206.12 18.46-23.11 32.87-50.49 43.65-81.74-9.1-153.55-12.89-357.29 51.05-484.79 44.63-89.14 122.4-140.95 254.46-112.22 143.09 47.09 180.03 279.55 80.57 398.01-74.83 74.62-231.51 10.8-204.79-95.96 8.38-33.59 64.2-97.58 94-60.41-54.14 7.11-70.5 116.25-10.07 117.26 97.36 1.78 99.87-247.55-50.36-188.34-22.25 17.93-44.9 35.4-70.51 49.77-101.13 126-51.61 327.81-26.85 515.27-4.34 189.98-239.35 206.12-278.66 376.7-27.55 120.08 54.84 227.14 177.93 209.66 142.69-64.56 109.97-314.79 265.23-366.02 50.5-6.96 78.75 23.69 117.51 39.08 52.72 69 34.14 222.41-87.3 206.12-11.74-17.62-50.08-24.43-40.28-53.31 13.01-20.59 16.65 19.84 40.28 10.66 11.34-6.66 29.66-15.25 26.86-42.65-7.4-73.28-114.42-12.87-130.92 49.76-25.61 97.87 89.24 144.81 161.14 145.7 162.27 2.08 343-86.47 355.87-223.88 6.58-70.33-31.76-113.87-104.08-92.4-6.71 15.41-17.62 26.36-23.5 42.63 6.3 17.06 15.82 30.67 20.14 49.77-70.08-23.85-31.33-120.1 13.43-135.04 92.05-30.8 186.76 71.52 188.01 167.03 1.26 94.91-54.27 186.12-97.36 230.98zm-3189.4-1815.9c63.78 56.13 197.22 36.15 285.37 28.44 10.49-10.06-1.41-26.8 6.71-42.64-106.6-3.55-187.87 10.65-292.08 14.2zm-621.1 4673.1c12.87 7.7 18.34 23.24 33.58 28.42 62.1-26.5 95.12-84.1 161.14-106.61 82.13 2.37 143.25 68.85 231.66 63.97 18.47 19.24 7.27 37.76 10.06 63.97 13.03 17.02 31.48 28.28 40.29 49.74-5.32 48.87-15.11 93-50.35 110.17-11.62-37.61 46.31-110.91-20.13-124.38-27.57 13.92-67.16 61.45-117.52 67.52-31.06 3.7-84.91-11.55-124.22-10.65-58.61 1.32-83.5-22.81-107.44-63.98-37.2 5.48-35.66 52.28-53.71 78.19 18.2 28.13 37.91 54.64 53.71 85.28 54.7 15.55 92.19 49.31 167.87 42.65 36.8-8.44 68.95-40.73 107.43-35.54-46.59 27.4-90.49 82.18-147.72 81.74-51.62-0.45-93.72-55.83-151.07-53.31-5.32 14.51-15.38 23.99-20.14 39.09 18.46 34.65 14 62.63 20.14 95.95 15.38 83.36 114.7 92.1 194.72 113.72-34.28 35.97-121.14-15.85-181.29-10.67-5.04 70.04 55.53 114.32 97.36 159.93 23.09 25.16 36.23 54.48 53.71 67.51 67.7 50.65 164.23 77.88 248.43 78.19 29.81 6.51 64.78 6.35 107.43 0 103.81-15.56 257.96-110.17 282.02-181.25 19.58-57.75 29.8-140.37 0-191.9-46.43 14.07-135.69 30.36-171.22 3.56 102.54 1.92 203.67-38.94 188-149.25-68.4-32.58-161.7 16.28-228.28-7.11-45.19-15.84-56.09-67.52-87.3-103.05 56.94-8.6 87.85 70.33 151.08 81.73 144.08 26.2 266.35-48.28 231.66-202.57-34.97-26.65-58.76 16.73-90.66 24.88 18.61 22.65 71.34-12.58 87.3 7.11-86.31 76.4-284.12 57.75-345.79-35.53-56.39 6.51-55.55 61.15-57.08 110.16-13.85-21.02-25.89-50.2-26.86-78.48-0.28-3.55-0.28-6.96 0-10.36 1.81-30.66 29.24-44.43 40.28-74.63 25.6-69.74-16.78-168.5 20.15-238.1 25.04 49.31 3.36 148.66 36.94 206.11 40.41-17.61 83.64-32.28 110.78-63.96 78.2-14.96 112.74 43.08 177.93 53.31 2.93-60.71 45.17-133.42 10.06-174.14-70.36-81.58-253.04-90.47-214.85-273.63-134.3-10.07-297.26 40.58-449.88 14.21 43.93-63.67 143.81-117.71 87.29-216.77-34.69-16.58-60.98-42.06-80.57-74.63-40.43 29.76-58.34 95.95-53.71 152.81 1.12 43.98 7.7 93.28 11.2 141.85 5.3 76.11 2.65 150.44-41.42 199.3-61.12 67.67-173.74 123.94-141.01 259.43zm80.57 60.41c96.53 48.12 243.55 47.82 315.59-28.44-85.19-63.96-259.91-74.63-315.59 28.44zm2063.4-648.74-0.2-0.1c-337.01 331.95-696.66 658.06-1200.4 801.64 94.29-4.73 193.32-39.83 282.02-78.18 355.58-174.74 678.23-414.74 918.57-723.36zm-378.07 399.98c297.12-174.73 502.76-476.79 718.3-749.68-230.65 245.05-450.97 531.57-718.3 749.68zm852.74-1652.5c-58.75 376.84-274.46 731.62-480.09 995.04-156.25 200.04-301.16 341.74-500.22 493.95-47.42 36.28-91.07 78.78-135.41 105.14-3.07 1.78-6.01 3.41-8.95 5.03-133.59 72.41-291.11 150.88-453.22 191.9 564.01-197.82 978.49-572.88 1255.6-1062.6-100.43 138.45-196.11 286.81-315.57 412.22-22.66 23.85-51.49 37.61-73.86 60.42-114.15 115.64-220.19 235.73-362.58 330.49-65.47 43.54-146.75 77.15-224.94 120.83-90.22 50.49-166.32 94.46-275.28 106.61 33.42-28.43 79.3-32.87 117.48-46.2 115.41-40.42 220.75-108.38 322.3-167.02 137.79-79.22 252.64-182.73 359.24-294.96-236.14 190.72-475.76 396.68-805.75 476.19 30.78-22.8 71.36-33.31 107.43-46.2 105.06-37.61 222.84-85.28 292.09-156.36-124.78 76.41-276 124.83-439.81 159.92 26.44 52.56 34.42 124.68 57.08 181.23 158.91-58.04 307.61-126.89 433.08-220.32-124.78 56.41-280.04 148.96-426.38 170.58 160.74-41.91 309.72-132.38 445.69-215.15 20.71-12.73 41.13-25.17 61.27-37.17 228.99-137.11 454.06-349.59 614.36-579.25 163.67-234.54 324.54-499.58 409.59-792.47 36.37-125.11 70.24-289.92 50.35-451.32-35.11 50.35-7.96 159.62-23.49 259.42zm-274.8 663.48 0.13-0.01c135.53-235.06 286.25-513.86 264.6-869.58-16.22 2.97-18.74 20.43-30.22 28.43 22.91 334.01-123.09 596.69-234.51 841.16zm144-365.92 0.26-0.18c45.35-125.44 93.84-293.1 76.83-450.18-11.48 5.62-10.49 24.43-20.15 31.98 12.14 142.39-40.01 288.02-56.94 418.38zm-70.63 143.1c71.06-157.69 103.51-337.01 114.14-536.61-10.91 8.59-12.45 27.1-23.49 35.54 6.42 194.12-63.09 331.82-90.65 501.07zm-631.16 721.4c-224.1 200.48-461.35 404.08-802.38 469.08-0.28 5.04-0.56 10.08 3.35 10.67 2.52 3.25 6.16 5.33 10.07 7.1 761.25-197.52 1180.1-815.27 1447-1538.8-181.44 390.76-370.42 773.53-658.02 1051.9zm631.16-1048.3c-46.99 47.38-73.9 111.88-87 186.93l0.48 0.26c37.05-53.03 70.68-123.08 86.52-187.19zm-1430.2 1012.8c-2.93 11.11-11.18 16.59-13.42 28.43 197.1-98.27 375.14-216.71 528.78-360.97l-0.25-0.24c-171.88 110.76-311.08 256.08-515.11 332.78zm352-230.56-0.28-0.14c-112.31 37.29-190.29 148.41-301.36 163.18-12.45 8.89-30.77 27.84-26.86 42.65 121.62-55.72 233.48-121.79 328.5-205.69zm-301.64 241.23c-31.61 17.17-76.38 25.76-94 63.96 300.75-110.46 530.3-296.29 715.09-529.49-183.95 178.86-390.28 340.85-621.09 465.53zm-198.08 113.71c39.87-62.04 73.6-130.6 120.87-184.79-58.48 18.66-221.16 109.28-120.87 184.79zm-110.78-74.63c-23.22 82.48-16.8 187.91-13.44 287.86 26.45 41.89 90.93 43.37 124.22 78.18 4.9-59.53 7.7-125.71 3.36-199.01-33.02-61.01-83.51-103.5-114.14-167.03zm880.59-235-0.96-0.59c-55.34 39.79-99.49 94.08-154.47 139.64-132.89 110.31-278.93 195.9-446.52 266.52-32.03 13.48-74.4 10.23-100.7 42.66 282.35-98.45 539.82-223.25 702.65-448.23zm-610.89 433.57 1.09 1.2 0.8 1.91c119.31-30.93 211.09-90.98 303.48-150.39l-0.36-0.2c-102.22 48.57-195.96 106.11-305.01 147.48zm514.41-396.21-0.22-0.15c-179.14 126.84-350.99 261.39-582.46 332.83 225.07-49.9 427.18-185.29 582.68-332.68zm-97.73 110.58-0.1-0.07-0.11-0.42c-142.81 89.34-282.73 181.71-454.52 240.36-25.32 2.81-49.38 6.96-57.07 28.43 188.1-43.33 382.26-139.36 511.8-268.3zm193.21-325.17c-187.3 183.17-390.69 349.3-651.3 454.88 356.01-112.39 597.02-346.48 792.3-629-58.32 31.83-90.64 122.01-141 174.12zm-500.23 415.79c34.7 2.37 64.91-30.8 104.09-35.54 225.89-155.32 448.03-314.65 570.72-579.25-168.15 265.04-392.66 470.42-674.81 614.79zm339.09-188.35c-150.1 114.75-303.7 225.81-527.08 262.97-5.18 18.95-6.44 21.77-6.72 42.65 118.34-30.65 225.62-78.78 315.57-135.04 228.76-143.16 435.41-308.67 555.33-561.08h-0.26c-86.44 157.52-207.28 278.62-336.84 390.5zm157.79-78.18c-18.75 12.84-35.55 27.76-46.47 48.88l0.26 0.15c139.78-120.41 249.76-272.38 331.57-454.15-26.57-11.55-34.41 27.54-40.29 49.75-65.33 135.78-162.4 237.95-245.07 355.37zm241.71-287.85v12.56l0.64 0.73c34.21-46.19 57.89-103.48 90.01-151.88-53.99 6.81-54.83 100.54-90.65 138.59zm-473.36 559.81 0.04 0.19c245.31-183.19 488.77-386.49 587.47-712.81-160.63 274.81-342.8 526.83-587.51 712.62zm550.59-559.81c-30.78 62.19-75.69 110.16-104.09 167.03-72.88 100.53-175.97 169.09-251.78 266.52-187.73 150.88-404.26 304.59-661.37 358.93 1.95 13.32 4.89 25.61 13.43 31.98 472.52-149.85 826.7-426.59 1044.1-852.88 24.2-47.39 37.08-102.62 50.35-156.37-54.4 36.27-61.4 125.71-90.63 184.79zm-1007.2 845.78c9.22 26.06 55.39 1.63 83.92-7.1 33.72-10.37 70.38-25.32 90.65-39.09 190.38-78.04 350.14-188.5 493.51-316.29 79.91-51.69 146.43-117.54 200.06-197.06l-0.33-0.18c-233.53 245.58-508.07 447.75-867.81 559.72zm916.37-618.16 0.14-0.18h-0.07zm43.79-67.7-0.18 0.02 0.18 0.22v-0.24c77.63-96.69 141.7-226.7 174.58-358.92-32.88 7.25-29.23 52.27-36.94 74.62-36.36 105.72-92.18 196.05-137.64 284.3zm147.73-227.44c-212.92 453.84-592.42 770.56-1081 934.63-0.55 2.95 1.26 3.4 3.36 3.54 0.69 2.81 3.35 3.56 3.35 7.12 2.67 0.73 3.36 3.55 6.72 3.55 77.5-13.92 134.02-50.05 208.14-67.52 261.73-134.45 485.12-314.06 661.38-543.72 107.85-140.67 221.29-282.66 265.23-479.74-42.53 26.05-44.5 95.05-67.14 142.14zm-73.87 835.12c40.01-38.94 68.54-90.33 107.43-131.49 110.27-116.72 214.41-236.55 297.58-374.76l-0.14-0.15c-328.47 441.33-729.42 805.96-1254.2 1039.4 131.21-37.76 234.86-91.21 342.43-152.81 62.25-35.68 119.88-80.25 174.58-120.82 116.24-86.04 236.82-166.13 332.36-259.42zm-305.51 277.19c77.7-43.47 157.84-114.61 226.57-179.63l-0.25-0.18c-78.75 56.43-155.16 115.35-226.32 179.81zm285.36-330.5c227.05-189.82 411.69-441.98 567.39-717.85 154-272.88 277.53-607.08 248.43-1012.8-13.3 174.87-23.79 366.77-67.14 525.94-28.83 105.87-71.35 204.93-120.87 305.62-170.52 346.93-366.22 644.99-627.81 899.08zm585.85-914.68-0.81-0.61c-33.87 68.18-60.29 144.25-98.23 208.11 37.29-50.75 77.26-127.94 99.04-207.5zm-109.12 235.92c-24.34 32.29-49.93 63.24-60.42 110.17 26.86-29.61 40.98-72.69 60.42-110.17zm-132.04 239.72-0.14-0.29c-120.37 124.02-212.12 278.32-344.55 389.58-9.72 32.76-40.75 42.65-52.82 72.77l0.93 0.17c150.37-134.83 280.38-291.21 396.58-462.23zm-1207.5 1018.3c86.31-36.57 173.46-72.25 251.79-117.27-79.87 12.73-164.92 88.25-255.15 78.18-8.39 9.03-1.95 32.73 3.36 39.09zm-3.36 35.54c65.32-6.66 140.73-33.46 194.72-63.96-59.03 13.32-134.01 40.57-194.72 63.96zm691.29-475.94-0.03-0.03c-207.87 138.69-395.67 298.62-657.68 380.02 256.27-59.05 471.45-223.12 657.71-379.99zm-164.2 152.55c50.22-28.58 102.52-54.93 134.29-103.05-45.2 33.91-93.87 64.11-134.29 103.05zm-303.45 243.73 0.06 0.66c60.31-21.63 110-54.47 162.39-84.47-52.27 16.05-116.28 49.25-162.45 83.81zm85.07-19.78c-106.37 38.94-191.55 100.34-318.78 117.21-16.23 13.62-36.09 23.39-50.36 39.09v3.55c139.12-36.26 266.11-85.4 369.17-159.83zm-342.27 71.01c-21.98 37.61-70.66 25.02-80.59-14.22-11.75 29.92 18.2 41.02 23.51 63.97 23.22-12.14 51.2-19.25 57.08-49.75zm520.36-597.02c32.45-21.32 60.85-46.93 83.93-78.18 71.54-56.01 135.6-119.94 190.18-193.9l-0.2-0.2c-65.28 62.64-129.57 126.33-189.98 194.1-186.32 147.48-386.92 279.86-654.66 341.15 13.98 29.02 62.53 11.55 94.01 3.56 35.8-9.18 77.91-19.99 97.35-39.09 155.28-35.84 261.02-124.08 372.66-206.11 8.81-7.41 2.79-13.93 6.71-21.33zm-580.8 547.27c42.53 86.03 56.93-65.9 36.92-103.06-13.83-12.58-18.32-35.09-33.56-46.2-25.04 14.52-11.75 74.04 0 92.4 15.81-2.07 20.55-10.36 36.92-3.55-1.82 32.42-32.45 34.34-40.28 60.41zm483.44-593.46c-94.7 54.93-190.94 108.23-278.66 170.57-78.33 11.84-133.58 48.12-204.78 67.52-1.82 2.81-3.5 5.78-3.36 10.66 2.66 0.74 3.36 3.56 6.72 3.56 68.12-25.47 136.1-51.39 202.27-79.37 177.1-74.33 342.72-162.43 472.52-293.77 70.51-71.22 145.91-144.81 208.17-223.88 110.63-140.52 208.97-333.61 255.13-529.5-121.69 380.54-372.22 655.5-658.01 874.21zm638.16-742.7c-1.66 2.83-3.36 5.63-4.86 8.53-4.74 9.21-11.35 17.71-15.74 26.8-3.73 7.68-5.61 17.37-8.41 25.84l-1.49 2.77c-210.12 473.53-589.75 784.48-1084.4 945.28 1.12 8.29 5.32 13.32 3.36 24.88 355.73-90.18 628.65-278.23 842.66-536.61 147.72-178.28 290.69-384.09 332.37-636.11-36.83 20.33-43.57 88.44-63.5 138.62zm-23.79 167-0.63 0.73 0.37 0.12 0.26-0.85c54.98-63.82 76.24-163.33 117.51-241.66 6.99-31.68 6.56-71.21 30.21-85.28-0.55 60.12-40.57 139.18-63.79 199 50.37-39.23 82.82-158.72 114.15-241.64-25.45 22.8-56.65 39.53-90.64 53.3-23.92 118.01-60.15 222.99-107.44 316.28zm87.29-99.51c-43.09 116.68-121.28 196.2-181.29 294.96-80.9 75.43-149.53 194.14-234.72 276.89l0.02 0.02c248.9-224.45 440.75-523.53 579.39-853.6l-0.45 0.06c-18.6 29.83-29.86 67.42-52.16 93.33 7.42-57.46 55.54-102.32 63.8-170.57-76.38 100.38-90.24 266.96-174.59 358.91zm-433.08 675.21c-162.96 152.5-363.28 256.15-577.45 341.15-49.24 2.51-98.89 22.21-144.36 39.09-0.55 2.96 1.26 3.4 3.36 3.55 144.5-17.91 280.75-78.77 389.44-138.59 38.33-21.02 81.97-30.35 120.86-56.86 261.03-177.09 504.84-435.77 681.52-717.84 136.11-217.23 272.07-443.18 292.07-764.05-144.21 537.5-415.6 966.01-765.44 1293.6zm219.24-133.13 0.28 0.31c176.63-173.42 322.54-379.35 438.5-617.01-53.85 104.39-130.23 209.07-191.36 305.61-19.59 30.95-39.59 75.52-73.87 78.19 119.6-173.7 260.74-337.46 308.87-575.7-180.03 450.28-463.99 790.54-809.09 1066.1v3.56l-0.27 0.11 0.08 0.11 0.19-0.22c179.05-111.35 316-267.27 449.87-426.45-20.79 62.51-88.36 105.7-123.2 165.39zm593.21-765.95c18-23.5 33.51-49.66 40.22-85.08l-0.03-0.07c-17.3 24.25-30.97 52.34-40.19 85.15zm63-141.19 0.67 0.35 0.12-1.31c25.92-52.38 48.18-126.99 46.95-197.05l-0.5 0.15c-17.52 67.71-31.91 122.47-46.45 196.9zm-74.5 221.17 1.31-0.11c142.33-229.21 212.68-532.78 198.22-893.09l-0.35-0.22c-44.61 45.79-27.8 94.73-26.53 163.11 1.4 81.73-23.78 160.36-30.21 238.09-2.81 33.77 0.55 66.49-3.36 99.51-17.79 151.95-95.74 269.52-139.08 392.71zm135.72-584.61c24.34-50.49 23.09-132.96 13.43-195.45-37.63 36.12 2.1 125.26-13.43 195.45zm80.57-479.75h1.13l1.94-2.2c-12.86-106.97-40.23-228.1-73.56-324.73 15.94 111.19 53.29 221.81 70.49 326.93zm36.93 103.06c0.27-167.02-44.06-431.63-137.64-543.72 4.05 19.41 6.84 40.13 10.06 60.42 85.2 128.23 92.33 304.13 127.58 483.3zm-10.07 127.93c15.74 521.66-190.31 917.46-403.5 1246.7l0.15 0.16c225.3-316.19 474.25-727.83 403.35-1246.8zm-6.72 483.3c11.89-19.4 22.38-59.23 20.15-81.73-17.48 0.3-18.75 64.55-20.15 81.73zm-341.59 776.53 0.11 0.23c135.51-217.44 303.47-462.19 378.41-758.99 62.95-249.5 86.17-616.12 6.72-867.1 16.23 147.63 40.02 290.67 40.29 444.21 0.98 489-263.32 840.74-425.53 1181.6zm71.1-168.41-0.47-0.37c-128.71 199.67-269.4 386.68-422.87 560.13l0.09 0.1c165.3-160.99 318.91-334.35 423.25-559.86zm-1592.8 799.14c-14.26 38.94 7.98 90.92 23.52 120.83 5.45-5.78 21.12-4.29 20.13 7.1 10.79-46.64 16.23-129.11-43.65-127.93zm-60.42 344.7c-33.99-19.68-63.37-44.27-100.71-60.4-47.99 13.17-88.28 34.49-134.3 49.75 49.24 64.56 184.51 85.73 235.01 10.65zm-255.14-1091c-29.11 26.06-36.39 75.22-57.07 110.16-7.16-66.49-29.94-126.31-53.74-191.9-20.83 20.58-21.67 62.34-33.57 92.4-22.52-21.17-12.3-76.99-36.92-95.95-10.36 43.53-24.61 82.92-40.3 120.82-27.54-11.1-21.95-57.3-46.99-71.06-7.84 62.77-10.36 131.18-33.58 177.68-15.1 0.58-6.28-24.14-20.14-24.88-51.89 161.69 116.67 208.33 137.65 348.26 42.1 0.44 97.51 7.11 127.59-14.22 4.6-34.94 9.08-90.61 30.19-124.37 14.84-23.69 42.12-37.31 50.37-60.42 32.6-91.65-38.47-169.53-23.49-266.52zm57.07 533.05c-2.8 4.14-4.48 9.47-3.36 17.77-88.4-74.93-270.41-72.85-342.44 14.21 103.37 35.1 244.8-33.46 334.74 4.74 6.15 2.66 12.03 5.77 17.76 9.47 10.91-8.13 20.01 8.89 30.22 0 28.83-107.05 33.58-228.46-60.44-259.41-51.19 56.71-43.36 183.61 23.52 213.22zm-433.09-511.73c-5.18 46.64-9.09 110.16-6.72 174.13 22.67-45.46 35.53-126.16 6.72-174.13zm-73.86 451.32c-69.52 72.71-65.33 196.34-73.87 323.38 104.09-38.2 90.93-203.89 73.87-323.38zm-614.37-319.83c133.86 123.64 271.65 262.08 449.86 326.93-162.54-95.64-298.65-219.29-449.86-326.93zm355.87 248.75c-28.26-51.83-92.18-96.68-161.16-117.27 52.04 40.87 109.11 76.41 161.16 117.27zm-564.02-461.97c-0.14 4.88 1.54 7.84 3.35 10.65 176.82 236.91 376.16 449.99 664.74 568.6-268.03-145.11-481.76-347.67-668.09-579.25zm322.28 380.24c-101.26-92.7-222.4-185.24-295.42-298.51-26.16-40.72-49.8-110.02-87.29-127.94 75.81 150.45 193.74 278.82 315.58 390.91 122.54 112.68 264.94 218.85 423.02 270.08-133.18-62.93-246.2-134.15-355.89-234.54zm322.31 248.76c-52.05-22.95-102.4-61.9-157.79-81.74-38.76-38.34-88.26-65.3-134.3-95.95-170.93-150.74-330.41-313.61-453.22-515.28 108.13 217.22 270.96 376.54 453.22 515.28 39.04 38.05 83.38 70.48 134.3 95.95 59.45 40.13 128.83 88.69 194.72 110.16 2.37-27.09-23.51-22.5-36.93-28.42zm-1222-1027c53.58 290.36 223.12 519.57 376.01 728.5-133.03-220.47-292.92-443.32-376.01-728.5zm83.93 181.23c-5.31-40.57-31.19-90.03-50.35-127.93 5.17 54.94 36.51 82.18 50.35 127.93zm-97.36-31.99c7.97-45-19.86-96.39-26.85-152.8-13.99 36.87 18.74 104.97 26.85 152.8zm-50.36-234.54c6.71 24.88 6.86 56.71 16.79 78.19 5.73-27.7 8.4-81-16.79-78.19zm-10.07 46.2c-5.6-31.24 4.48-80.4-26.86-95.94 11.89 129.56 46.02 266.37 90.65 373.13 34.27 142.14 114.98 272.59 198.07 390.91 79.88 113.71 160.03 230.24 261.87 323.38 203.11 185.82 403.01 394.61 664.75 497.52 6.99 2.81 18.31 2.07 30.19 3.54-80-51.22-167.02-90.31-248.43-145.69-76.93-52.42-150.37-111.06-221.57-174.13-227.74-201.97-452.67-430.59-597.59-714.3-67.29-131.63-121.14-289.47-151.08-458.42zm-141-319.83c-21.4-13.33-12.87-36.27-33.57-49.75 56.27 862.18 517.64 1397.8 1071.4 1778.4l-0.03-0.21c-346.31-263.51-685.68-596.17-876.64-1039-53.16-123.19-110.09-270.53-134.29-415.79-16.09-96.68-32.46-195.15-26.86-273.63zm-33.57-74.63c-15.67-21.32-20.29-54.34-40.29-71.07 12.45 302.66 72.74 619.38 191.36 842.22h3.36c-62.67-165.69-127.29-388.82-151.08-597.02-6.71-58.19-42.1-130.15-3.35-174.13zm40.29-714.28c27.41-40.88 49.37-87.52 60.42-145.71-30.49 37.61-42.8 94.47-60.42 145.71-36.94 61.88-49.11 137.7-70.51 209.66 33.85-56.86 45.04-136.67 70.51-209.66zm-20.15 117.27c35.82-53.31 54.69-124.53 77.22-191.9-31.76 57.59-62.81 115.94-77.22 191.9zm83.94-330.5c-85.34 158.44-151.37 337.3-201.44 533.05 12.31 10.37 11.6-23.09 26.85-21.32 45.19-184.34 110.09-347.81 174.59-511.73zm-429.73 671.65c-6.996 20.43-13.43 58.48-10.07 78.18 13.988-14.81 9.226-49.46 10.07-78.18zm-10.07 81.73c-34.692 121.42-23.922 262.53-16.789 387.35 6.296 109.87 34.687 232.33 70.503 334.05 93.73 265.84 192.93 532.89 348.51 730.37l0.53-0.41c-192-307.9-359.77-664.74-399.4-1117.3-9.519-108.98 6.992-213.96-3.355-334.05zm265.21 1162.1c51.9 157.4 148.7 277.18 241.72 394.45 91.71 115.61 190.21 233.48 306.26 324.87l0.15-0.19c-184.91-175.58-320.41-379.07-464.2-616.07-103.09-169.99-201.43-354.93-251.78-565.04-56.094-233.95-68.27-559.56-63.789-817.35-72.598 451.02 36.934 974.01 231.64 1279.3zm1255.6 1197.6c-372.14-184.11-672.94-443.71-924.96-754.96l-0.17 0.34c86.98 142.06 201.88 240.12 320.83 356.61 172.34 168.79 371.53 311.69 604.3 398.01zm-366.57-177.96 0.63 0.28c55.68 48.86 121.14 87.36 191.37 120.82-58.89-45.46-126.47-81.73-191.37-120.82l-0.47-0.42zm-1009.9-1723.3c3.21 26.35 19.16 51.97 23.5 78.17 32.58 195.17 87.42 375.52 171.21 511.74-156.81-349.59-233.6-824.31-171.21-1307.8-76.107 201.53-50.786 493.82-23.5 717.85zm57.07-923.96c-37.49 66.93-66.87 173.24-77.216 280.74 29.656-89.43 52.736-185.97 77.216-280.74zm47 1368.2c-67.29-170.58-108.97-405.12-144.36-618.35 35.32 657.89 329.09 1103.2 672.74 1458.4l0.2-1.35c-42.32-83.26-117.5-132.39-169.35-202.61-11.9-16.14-13.99-40.72-26.86-56.86-12.46-15.55-33.02-21.62-43.65-35.54-60.85-79.21-100.86-177.09-147.72-262.97-50.92-93.29-104.22-187.46-141-280.74zm-144.36-899.09c-18.75 78.63-13.43 137.56-6.715 220.33 5.316-57.15 9.652-155.47 6.715-220.33zm151.07 1019.9c-134.71-303.09-195.69-717.25-161.14-1137.2 14.414-174.12 80.994-321.31 117.5-472.63 4.05 0.29 2.1-5.19 0 0-31.61 24.57-28.4 86.03-57.07 113.72-40.149 169.53-73.587 339.81-90.649 540.15 12.871 160.95 15.105 296.44 30.215 447.77 9.23 92.4 49.234 196.04 73.864 294.95 19.02 76.26 53.15 148.22 84.07 214.85 8.11 17.62 16.08 34.8 23.35 51.68 76.66 175.76 176.26 334.34 282.02 465.53 195.84 242.84 433.91 495.15 701.66 643.22 95.93 53.07 182.41 150.97 311.58 163.38l0.13-0.18c-580.96-290.96-1022-730.03-1315.5-1325.3zm-40.28-1549.4c18.88-28.58 29.79-65.6 40.28-103.05 12.18-22.67 38.33-30.51 33.57-71.09-13.28 21.48-31.33 37.91-33.57 71.09-15.53 32.12-36.09 58.93-40.28 103.05zm23.5-120.83c-12.45 10.51-16.37 30.06-20.15 49.75 7.56-15.7 17.77-28.57 20.15-49.75zm151.07-312.73c-90.64 99.51-144.78 237.66-201.43 373.15 69.8-121.57 137.51-245.36 201.43-373.15zm-218.22 422.9c4.06 0.29 2.09-5.19 0 0zm-13.43 28.43c-4.05-0.3-2.1 5.18 0 0zm-73.855 1059c34.973 221.36 96.935 396.96 184.64 557.92 3.22-0.15 2.66-4.29 3.36-7.11-90.51-161.84-127.16-361.14-188-550.81zm1467.1 1815.9c11.62 5.48 30.09 18.65 40.29 14.21-11.05-7.25-20.42-16.29-40.29-14.21zm77.22 3.55c-10.91-10.96-28.81-14.51-47-17.77l-0.2-0.42-0.23 0.44 0.43-0.02c11.04 10.81 24.21 19.4 47 17.77zm-705.01-483.3c90.08 86.32 187.58 161.55 282 227.43 183.25 127.78 366.51 256.91 604.31 266.53-57.36-24.43-147.31-38.5-208.16-56.85-28.81-8.75-60.84-27.25-87.29-39.1-261.62-116.51-475.41-315.4-677.29-493.19l-0.25 0.18c16.76 28.11 52.64 62.48 86.68 95zm738.59 490.41c0.41 9.03 11.18 7.11 20.13 7.11-3.06-6.23-10.49-7.86-20.13-7.11zm87.29 17.77c-0.57 9.91 9.5 11.55 13.42 7.1-2.24-4.74-7.14-6.66-13.42-7.1zm-127.58-3.56c40.56 17.47 86.15 29.62 141 31.98-41.13-14.65-97.08-31.98-141-31.98zm-147.71-31.98c56.63 39.98 152.89 61.3 224.94 71.07-78.06-20.43-148.72-48.71-224.94-71.07zm-1050.8-877.76c10.5 22.06 24.07 40.87 43.65 53.3 71.9 111.05 157.79 207.3 255.15 291.41 32.52 38.39 70.35 71.15 109.35 102.68l0.1-0.13 0.71-0.41c-32.57-38.45-70.07-71.66-110.16-102.14-82.11-100.25-170.52-193.83-255.15-291.41-12.59-19.84-25.04-39.83-43.65-53.3zm-372.65-1730.6c-20.422 17.48-14.547 62.79-16.781 99.51 16.781-21.32 8.676-69 16.781-99.51zm26.863 767.6h3.356c-32.172-353.14-36.648-663.8 63.794-984.37-29.521 31.54-31.064 92.69-47.005 138.59-16.926-0.15 4.617-18.8-6.715-24.87-80.015 260.01-45.328 596.73-13.43 870.65zm308.86-1560.1c-160.16 176.35-275.43 449.98-329.01 739.16 93.168-270.67 170.25-537.2 329.01-739.16zm-235 508.17c71.76-207.15 181.85-373.73 288.73-543.72-133.18 146.59-224.39 332.57-288.73 543.72zm188-270.08c42.81-51.83 81-127.49 110.79-181.24-46.58 50.2-79.73 114.61-110.79 181.24zm-184.64 952.39c0.14 62.48 12.87 135.93 20.14 199 10.35 90.62 16.37 172.8 36.93 259.43 19.16 80.69 41.12 157.83 65.6 231.72 66.73 201.68 152.9 380.24 256.69 546.53 51.76 82.92 114.99 149.55 177.94 227.44 213.32 264.15 479.11 505.51 802.37 657.42 68.27 32.14 174.86 67.97 261.87 81.74 2.79 0.59 3.22-1.33 3.36-3.56 12.45-7.4-26.17-18.8-33.57-28.42-12.6-9.63-30.36 4.29-40.29-3.55-220.55-57.85-384.17-175.95-542.78-299.34l-2.2-1.7c-55.43-43.16-110.28-86.92-166.75-128.96-276.55-280.89-565-606.64-711.46-1049.5-57.35-173.24-93.02-364.55-97.64-578.07-2.66-122.6-20.14-226.55-6.71-337.6 33.15-275.26 108.96-509.66 208.14-732.06 20.85-46.64 61.97-76.25 63.79-135.04-207.58 297.92-296.13 658.77-295.43 1094.5zm694.94 1272.2c-65.19-89.73-126.03-184.06-191.36-273.63 54.56 100.98 116.67 193.96 191.36 273.63 32.74 50.64 71.91 94.47 117.5 131.48-34.55-48.71-78.47-87.36-117.5-131.48zm66.55 41.87c-106.08-133.63-205.89-273.9-288.12-432.77 64.08 163.89 178.48 305.21 288.1 432.81zm252.4 260.19c5.72 1.33 6.29-2.82 6.71-7.1-74.99-68.71-149.12-138.3-218.22-213.23 49.37 81.59 137.36 153.11 211.51 220.33zm-76.3-41.83-0.01 0.01c120.71 122.86 247.27 239.36 405.31 322.56-144.46-97.7-274.95-210.06-405.3-322.57zm589.94 571.33c-55.52-6.37-89.81-35.25-141-46.19 39.73 27.83 92.48 41.89 137.65 63.95-2.8-10.06 4.76-9.18 3.35-17.76zm-402.39-170.33 0.03 0.12c119.32 88.99 244.95 171.3 409.08 212.86-136.79-57.1-274.41-141.95-409.11-212.98zm56.56 6.83v-0.01c-73.57-64.24-162.38-112.36-238.32-174.09 70.77 67.21 141.25 134.72 238.32 174.1zm-1138.1-1762.6c67.54 752.04 463.66 1266.2 929.75 1642.4l0.2-0.15c-444.54-402.87-832-884.45-929.95-1642.3zm841.43 1533.8c-34.11-38.77-66.1-79.76-111.93-106.11l-1.03 1c33.53 39.42 73.49 72.02 112.79 105.35zm-120.89-113.89c-85.24-110.17-174.99-215.57-260.6-325.34 71.06 124.97 165.35 225.35 258.51 326.94h0.52zm-720.54-1501.6c-6.43 17.62-4.34 56.7 0 74.63 11.61-15.26 8.11-58.49 0-74.63zm3.36-319.84c-0.42-12.29 14.82-7.99 16.78-17.76-18.74-105.87 31.9-188.2 47-280.74-72.18 159.92-91.76 386.46-73.86 586.35 11.34-82.62 2.38-177.98 10.08-287.85zm40.28 195.46c-11.46 81.43 3.09 195.16 16.79 273.63 1.26-80.99-14.54-186.57-16.79-273.63zm0-99.5c-12.87 16.29-6.15 63.22-3.35 85.28 14.26-20.58 2.94-64.12 3.35-85.28zm-20.14-92.4c-39.45 258.97 6.85 488.19 47 724.95 95.82 289.48 203.26 566.66 386.08 764.04-247.03-382.17-454.76-878.94-433.08-1489zm1265.7 2238.8c67.02 16.73 113.6 55.08 188.01 63.96-156.81-64.85-302.99-148.06-439.8-248.75-61.82-45.46-123.51-108.84-181.29-167.03-58.32-58.78-124.07-115.93-171.22-174.12-225.91-278.53-414.05-614.2-553.94-984.37 184.51 702.59 616.05 1174.5 1158.2 1510.3zm174.59 31.99h6.72c13.27-24.59-49.39-36.72-83.94-53.31-168.57-80.71-319.36-182.57-449.87-298.51-154.3-155.32-309.71-309.47-433.08-497.52 239.48 368.4 529.46 683.35 960.17 849.34zm-711.74-565.04c42.39 44.86 85.05 96.84 137.64 120.83-74.57-86.79-173.7-178-258.1-266.12l-0.04 0.08c35.19 50.47 77.42 99.61 120.5 145.21zm136.87 133.49-0.26 0.23c157.81 153.59 325.56 296.67 551.63 378.01-81.28-46.05-161.01-91.06-238.37-135.05-116.82-66.37-208.35-164.3-313-243.19zm436.25 296.19 0.25-0.26c-28.32-24.48-64.97-40.12-101.76-55.61l-0.12 0.44c29.68 22.92 61.22 43.86 101.63 55.43zm175.56 35.85c-5.33 8.73-23.52 1.48-30.22 0 3.07 12.14 27.26 1.92 20.13 24.88 14.26-8.59 20.57-25.62 26.86-42.65-170.93-67.81-304.25-175.46-446.51-273.64 125.75 115.65 280.33 200.79 429.74 291.41zm-1426.8-2562.2c55.25-135.78 110.79-290.21 171.21-408.67-79.31 110.31-132.05 267.57-171.21 408.67zm171.21-366.03c-51.19 91.51-90.36 195.75-127.57 302.07 50.64-82.62 68.41-182.72 127.57-259.42 0.15-19.69 5.47-27.1 0-42.65zm-167.86 419.34c20.57-27.99 24.49-73.59 40.29-106.61-19.02 29.61-34.27 63.22-40.29 106.61zm104.08 1147.8c-57.63-203.3-94.99-494.55-110.79-703.63-28.39 260.45 24.62 496.63 110.79 703.63zm231.65 326.94c-37.35-143.63-135.55-296.73-157.79-472.64-15.11-119.5-27.13-214.26-70.5-305.62 24.05 310.5 121.56 546.82 228.29 778.26zm-144.36-529.51h3.35c4.06 141.71 47.57 223.45 83.94 330.5-24.2-99.94-59.87-218.55-83.94-330.5-5.03-33.31 7.42-87.94-23.49-110.16-0.42 44.28 9.93 77.15 20.14 110.16zm1373.1 1233.1c-27.43 10.51-43.52-16.59-67.16-21.32 14.26 22.06 45.89 43.38 70.51 42.64 2.37-10.81-5.74-10.51-3.35-21.32zm-453.24-252.32c120.58 118.76 276.83 230.55 443.16 312.73 9.09 2.66 6.72-7.11 13.43-7.11-156.95-96.83-318.53-188.79-456.59-305.62zm-271.94-255.86c0.71 2.81 0.15 6.96 3.36 7.11 131.35 190.12 314.46 325.31 493.52 461.98 58.88 45.01 122.68 101.57 201.43 110.16-276.56-146.74-498.83-350.93-698.31-579.25zm-292.07-387.35c0.27-6.22-0.7-11.11-3.36-14.21-7.98 1.03 0.27 13.17 3.36 14.21 120.43 300.14 322.57 513.8 553.94 696.53 15.8 18.8 34.12 34.93 60.41 42.63-17.6-16.88-37.48-31.38-60.41-42.63-212.07-203.16-403.43-428.23-553.94-696.53zm480.08 660.98c83.79 106.62 273.19 226.99 399.51 309.18 20.56 13.32 56.65 55.52 73.86 10.65-184.78-78.03-317.67-211-473.37-319.83zm446.52 422.89c-206.78-98.16-377.99-233.98-530.16-389.93-3.41-2.19-6.52-4.77-8.79-6.68-6.24-5.23-11.28-12.28-16.49-18.59-2.43-2.92-4.91-5.84-7.39-8.75-130.18-138.28-246.81-290.88-360.42-446.7 219.49 391.94 548.63 686.75 926.61 899.08 2.38-13.18-5.74-15.25-3.36-28.43zm-6.73-21.32c-28.11-40.72-75.1-54.49-114.14-74.63-146.23-75.33-256.14-201.2-383.65-293.15l-0.26 0.28c146.3 141.2 306.1 286.61 498.05 367.5zm-587.51-383.8c126.23 143.95 262.22 277.57 441.6 365.24l0.26-0.13c-156.87-111.54-305.57-231.77-441.86-365.11zm496.18 402.55-0.46 0.55c27.68 18.93 60.9 48.56 98.52 44.66-31.93-15.87-61.96-33.63-98.06-45.21zm91.33 66.54c-229.41-93.58-408.04-240.91-577.44-398.02 141.98 160.07 354.05 326.5 577.44 412.23v-14.21zm-617.72-426.45c-12.93-24.17-44.32-57.5-71.25-79.47l-0.85 0.36c19.05 31.57 47.53 53.41 72.1 79.11zm75.36 37.33 0.08-0.16c-246.64-265.98-475.86-550.39-619.31-925.58 104.95 415.98 356.07 677.22 619.23 925.74zm-431.23-641.45c-8.53-33.76-42.67-101.57-67.14-142.15 8.67 47.68 40.56 101.58 67.14 142.15zm141 156.37c38.75 72.4 101.28 152.21 161.15 220.32 111.77 127.19 235.57 236.02 362.58 341.16 97.91 81.14 206.19 150.73 315.59 188.34-322.45-204.78-606.13-450.58-839.32-749.82-93.3-151.19-174.57-315.1-238.36-497.52 27.7 192.19 139.74 356.7 238.36 497.52zm236.72 240.23 0.28-0.1c-183.76-201.25-339.17-416.66-418.29-723.44-14.54 0-21.26-8.29-36.92-7.1 103.23 294.78 239.64 554.45 454.93 730.64zm-68.85-169.16c-101.42-139.48-213.05-280.3-271.94-458.43-9.51-28.58-20.43-64.26-43.64-85.28 69.66 218.84 181.14 393.42 315.58 543.71zm-73.87-127.94c-0.69-2.81-0.13-6.95-3.35-7.1-44.2-95.36-107.15-170.88-151.08-266.53-14.41-47.53-17.9-106.61-57.07-127.93 49.38 156.21 122.54 287.25 211.5 401.56zm97.37 99.51c105.75 138.45 230.67 278.07 365.94 376.69 28.38 20.72 63.35 34.35 94 56.85 65.88 48.58 121.29 96.4 201.43 127.94 3.92-1.19 8.55-6.22 3.35-7.11-259.9-145.26-471.68-356.4-658.01-582.8-56.09-68.12-102.95-139.48-151.07-213.22-47.71-73.15-65.89-164.36-124.22-238.1 52.74 180.2 159.32 336.86 268.58 479.75zm741.95 493.96c-135.75-66.17-255.42-149.36-374.32-233.35l-0.09 0.09c112.34 88.75 223.5 197.3 374.41 233.26zm-87.28-7.11c23.9 15.26 55.37 40.57 83.93 39.1-17.64-23.99-54.99-27.11-83.93-39.1zm-694.68-642.78c150.32 281.04 400.16 474.25 662.43 625.41l0.25-0.35c-253.98-173.27-497.05-358.25-662.68-625.06zm-10.36 35.1c-47.27-97.58-95.81-244.76-171.21-323.38 35.95 115.94 105.19 227.43 171.21 323.38zm-10.06-63.96c-8.96-26.07-25.47-74.93-47-99.51 5.45 43.98 32.45 65.16 47 99.51zm420.4 438.59 0.18-0.11c-168.39-148.62-331.01-321.45-437.37-523.78 90.62 219.11 258.96 385.7 437.19 523.89zm381.98 293.46c-148.14-63.52-274.87-149.69-392.8-245.2 64.07 82.03 181.71 161.25 285.36 223.89 29.38 17.76 66.88 36.41 107.44 35.53 3.2-6.67-10.07-11.84 0-14.22zm-50.37 202.56c3.93 110.61-48.96 173.24-73.85 262.97 4.75 36.73 61.27 92.85 80.57 39.1-29.51 3.7-35.95-15.7-57.08-28.43 6.3-18.96 39.59-6.22 50.36-7.1 21.42-9.34 20.3-42.5 23.51-71.09-44.63-16.87-30.22-68.26-20.15-110.16 37.92-23.84 82.67-66.18 60.43-131.48-25.6 10.8-39.59 33.91-63.79 46.19zm-1191.8 1083.9c-5.87 3.27-8.67 12.45-3.36 17.78 10.49-2.52 4.34-9.48 3.36-17.78zm-164.51-4378.1c-28.25 155.49-249.97 149.42-339.08 53.31-57.633-62.04-62.254-192.78 3.352-255.86 82.253-23.38 152.9 30.5 127.57 99.51 40.01-34.94 8.54-119.49-30.21-142.15-98.899-57.75-219.34 27.54-228.29 127.93-14.688 163.61 120.43 222.99 144.36 341.15 24.624 121.56-40.843 271.71-151.07 270.08-138.48-2.07-236.96-167.62-127.57-270.08 36.375-15.84 78.621-2.07 90.644 28.44-0.414 17.32 1.817 37.44-3.355 49.75 27.141-5.47 21.824-54.63 13.43-78.19-141.98-118.46-284.81 81.58-184.65 213.22 45.883 60.27 136.81 59.53 184.65 120.83 25.601 154.58-117.23 232.77-228.3 188.34-40.703-25.31-70.078-66.19-96.934-110.31-62.109-102.02-111.35-221.66-258.93-209.52-170.52 14.07-296.27 254.09-104.08 348.26 71.067 4.15 104.5-31.53 114.15-92.4-22.946 56.42-117.36 64.42-141.01 3.56-2.7969-22.8-2.6562-47.83-3.3594-63.96 29.801-77 103.52-138.01 201.44-113.72 72.172 17.91 124.35 80.25 160.16 138.74 5.18 8.43 9.934 16.73 14.414 24.72 51.191 179.61-165.35 463.46-292.09 291.41-2.656-43.09 6.442-73.74 26.867-92.4-9.238-10.51-15.531 14.22-26.867 3.56-101.69 121.41 24.762 291.25 171.22 227.43 73.441-31.98 104.36-131.04 188.01-145.7 117.92-3.41 192.62 70.33 194.71 177.68 3.219 160.52-204.09 320.13-248.43 110.17 5.594-30.8 26.433-45.46 43.644-63.97-124.22 5.18-116.24 238.55 10.071 234.55 39.586-1.34 68.125-39.84 110.78-28.44 22.945 6.23 32.039 24.44 53.722 46.2 43.075 163.03-41.683 309.47-198.08 298.51-73.863-5.18-134.29-54.78-201.43-71.07-240.61-58.49-332.93 242.54-174.58 369.59 80.574 14.65 133.87-40.72 134.28-110.18-9.657 69.75-103.65 74.34-130.93 17.78-2.098-19.1-4.195-38.21-10.066-53.31 8.382-209.37 278.64-155.47 372.64-60.42 31.617 44.13 78.762 132.68 50.363 216.79-28.679 85.14-111.91 130.89-151.07 28.42-1.679-29.02 13.149-40.57 16.781-63.96-87.562 29.02-58.613 199.89 26.856 216.77 114.71 22.66 148.84-145.55 265.23-117.27 72.454 17.63 119.6 125.56 110.79 216.77-11.196 114.91-139.19 233.51-245.08 138.59-6.152-21.76-9.371-41.01-10.074-60.4 12.867-21.92 24.344-45.32 43.645-60.42 16.926-5.47 24.48 0.74 40.289-3.55-133.31-78.18-154.01 130.3-90.649 209.67 102.26 118.59 171.64-99.51 282.01-74.63 78.903 17.77 80.293 159.62 40.289 230.99-76.242 82.92-216.26 0.89-318.94 46.2-58.055 25.62-121.28 114.76-124.22 209.66-4.047 128.23 146.74 175.03 181.3 53.31-31.902 41.16-91.07 30.2-104.08 7.1-59.735-106.46 88.691-213.36 184.65-199 20.567 3.11 42.379 13.77 53.711 21.32 159.06 105.28-73.297 332.86-83.93 476.2-18.183 243.87 294.6 297.17 295.44 53.31-19.164 111.04-154.16 113.56-194.72 21.31-33.016-173.98 49.93-379.8 201.43-401.56 130.37-18.81 74.699 150.58 67.149 206.11-10.22 76.11 43.78 113.13 90.64 81.73-17.2-13.77-36.37-25.46-47-46.19-7.97-131.34 135.97-177.98 224.93-113.72 15.39 16.88 23.93 41.02 33.57 63.97 13.02 205.67-274.45 161.98-261.86 376.68 1.4 22.67 2.38 45.46 13.43 78.19 29.52 86.91 124.22 129.41 94 255.86-28.26 118.31-195.13 83.51-235 0-0.562 21.77-10.633 36.58-3.359 56.86 22.383 35.54 54.558 60.71 90.649 81.73 156.81 8.3 246.75-87.06 231.64-266.52-2.79-33.91-15.38-69.74-20.14-110.17-20.56-174.86 127.01-313.6 258.51-227.43 32.45 74.33 23.64 161.85-36.93 199-38.61 14.82-62.81-28.72-80.58-35.53 13.99 136.52 174.44 136.81 188.01 0 1.26-13.18-5.18-26.8-3.35-39.09 25.6-167.17 306.9-85.29 245.07 81.73-29.38 55.38-77.91 90.47-137.64 113.72-14.13 1.63-14.97 17.33-23.5 24.88-159.47 38.05-244.1 217.51-171.23 376.69 47.99 104.98 212.21 153.99 144.37 294.96-36.09 53.89-139.75 30.49-144.37-39.1-3.07 99.95 140.59 159.03 221.58 95.95 36.09-46.79 49.52-121.27 23.5-177.68-60.85-131.79-185.62-303.55-57.07-444.21 50.5-33.17 105.75-79.66 171.22-74.63 147.86 11.4 190.81 329.01 16.78 355.37-65.74-5.33-82.11-95.8-47-149.26-118.48 84.25-38.88 283.26 124.22 245.21 164.64-82.03 81.27-448.21 339.08-412.23 16.79 23.69 32.6 48.42 53.72 67.52 34.54 133.86-57.08 239.14-33.57 369.59 13.01 71.95 74.41 153.24 154.42 163.47 119.75 15.24 201.44-103.81 157.79-238.1-12.57-2.08-13.69-16.29-26.85-17.77 27.69 89.43-28.4 143.04-100.72 149.25-21.82-8.59-39.02-13.17-53.71-24.88-121.28-96.98-3.23-322.49 104.06-355.36 80.58-4.6 150.24 4.59 188.03 53.3 2.65-41.9-27.16-129.11-30.22-199-7.98-6.67-22.53 2.52-33.58 3.55-395.17-44.57-650.89-277.18-913.17-476.19-121.84-92.4-219.48-219.15-329.01-323.38-183.95-227.29-358.11-520.62-466.65-852.89-22.945-70.19-51.062-143.34-67.144-209.67-30.778-126.75-25.18-268.15-33.578-401.57-6.29-99.79 21.964-176.64 30.218-266.52 13.852-151.62 31.192-324.57 83.93-447.76 93.724-218.86 176.39-427.49 335.72-579.25-0.98-18.8 11.33-23.55 13.43-39.1 14.55 0 28.54-3.1 40.28-14.22 9.24-66.03-10.9-142.13-33.57-202.56zm987.03-3248.1c31.47 0.157 51.2-12.148 67.14-28.418-13-34.804-22.93-72.851-43.63-99.511-32.88 24.277-46.31 92.246-23.51 127.93zm-67.14 1062.6c28.25-10.95 80.71-39.54 90.65-53.29 50.63-69.89 13.42-183.91 23.5-273.66 7.83-69.57 88.68-126.29 117.51-184.78 56.92-24.43 90.92-82.03 134.28-138.6 18.47-24.14 66.16-82.46 67.14-103.04 2.09-41.33-84.35-90.334-114.15-117.29-140.85 20.742-202.68 163.93-271.94 273.66-14.82 23.67-42.24 33.59-67.13 53.3-49.52 38.92-88.98 106.15-130.94 120.82-18.18-5.63-23.36-25.02-33.58-39.09 1.54-14.06 14.42 4.3 16.8-10.66 14.4-46.5-2.1-96.25 3.35-145.7 7.42-67.83 74-122.17 83.93-195.47 3.78-28.125-4.34-54.628 0-81.718 10.64-66.645 71.48-140.53 110.79-216.78 22.25-43.242 36.93-86.621 60.44-117.28 33.28-43.515 72.73-71.797 77.21-131.48 33.29 33.027-31.47 94.18-36.94 120.84 32.19-13.321 41.56-50.782 67.16-71.075 5.03 45.293-43.51 80.704-73.87 88.848 20.99 61.445 60.58 131.93 110.79 174.12 94.85 7.711 173.04-53.437 228.29-110.16-1.26-35.391-28.67-43.086-47-60.41-48.96-95.059-124.63-161.86-151.07-280.74-93.01-0.762-173.45-20-231.65 28.418-46.17 38.359-95.4 80.996-141.01 106.62-78.47 171.6-134.98 366.46-258.51 490.39-21.11 47.989-16.5 112.99-46.99 156.37-20.29-36.27-8.95-96.098-26.86-145.69 65.33-106.17 142.54-199.77 177.93-337.6-74-4.004-138.2 55.211-218.22 67.5-75.54 141.56-146.88 287.56-271.94 376.7-28.67 75.667-9.08 169.69-20.14 270.08 60.85-116.83 106.88-249.35 188-344.7-30.91 89.275-83.09 186.86-127.57 273.64-18.88 91.5-48.53 175.6-73.86 270.08-22.38 83.96-61.54 143.47-70.5 230.99-16.08 156.66-93.45 302.95-40.28 472.64 104.35-96.84 101.41-322.21 164.5-451.31 5.45 97.27-54.69 200.49-50.36 291.39-50.08 111.05-98.9 240.62-117.51 373.14-23.64-47.67-7.41-120.39-40.28-174.12-81.69 248.01-241.43 532.73-137.65 838.65 46.3-213.81 146.61-373.57 188.01-589.9 16.22 157.4-68.12 301.17-83.93 461.97-10.22 103.5 20.56 217.97 23.5 323.38 32.17 76.11 47.98 169.55 94 231 9.93-34.51 26.44-62.03 43.65-88.85 0.41-225.66 73.29-497.66 60.42-728.5-1.68-30.5-15.8-57.01 3.37-85.29 20.14 20.88-1.13 74.63 20.14 95.96 9.23 163.61 1.4 351.07-3.36 536.6-1.54 57.6 9.79 123.5-6.71 170.57-9.52 27.24-32.18 51.83-43.65 81.73-45.19 118.75-65.18 265.94-83.93 394.48-9.79 66.91 26.72 124.08 70.5 156.34 69.8-16.13 88.97-85.87 154.43-106.6 26.16-65.29 84.78-84.25 117.51-135.04 43.08-66.79-8.4-163.63 20.14-238.08 24.62-44.01 79.18-74.94 73.86-149.26-9.37-129.73-15.52-292.3 3.36-422.91 29.79 32.3 22.52 103.81 40.28 156.37 48.82-39.08 109.95-97.29 124.22-163.46 3.22-14.67-1.96-28.14-3.35-49.77-9.66-154.57-6.44-342.03-70.5-486.85-78.62 65.16-114.71 177.83-94.01 312.73 7.84 50.65 28.95 105.57 6.71 145.71-5.31-78.64-34.41-152.07-40.28-231-1.96-26.66 8.11-54.49 6.71-81.74-4.05-77.42-20.28-147.93-6.71-220.33 11.05-58.63 45.46-122.01 16.78-206.11-17.9 5.04-28.81 23.1-20.14 46.21-52.59 182.71-100.15 341.29-124.22 540.15-15.25-65.87-5.74-147.63-10.07-216.77 120.86-275.57 73.58-641.29 137.65-970.14 26.85-137.73 95.54-252.03 120.86-376.7 25.32 9.02-1.54 50.78-6.71 71.06-28.26 166.44-118.77 350.48-73.87 543.71 113.45-43.97 136.39-164.95 181.29-277.17-13 48.71-11.74 111.93-16.78 181.23-5.04 70.19-56.66 134.14 0 191.89 72.32-51.52 163.38-73.14 258.51-110.16zm-453.23 1798.2c-41.55 94.02-22.94 280.59 90.65 298.52-14.41-99.22 47.28-305.34-90.65-298.52zm141-188.34c87.57-22.52 55.68-163.92 30.22-220.33-51.76 56.11-53.44 139.63-30.22 220.33zm33.58-1290c-18.19 59.69-55.4 139.18-20.15 195.47 20.98-62.05 9.23-118.91 20.15-195.47zm-47.01-255.86c-78.75 67.37-72.32 189.08-43.64 294.96 27.7-82.32 78.76-190.27 43.64-294.96zm282.01 945.28c-2.52-24.73 22.52-47.23 23.51-71.08 2.93-72.85-71.91-121.56-107.44-170.57 5.74-107.79-52.73-172.36-100.72-234.55 7.7 227.89 41.83 426.45 6.72 653.89 87.85-52.58 229.41 71.66 130.94 156.37-11.34-2.23-31.2 4.57-36.94-3.56 0.42-27.11 15.53-9.2 26.86-14.22 5.03-18.96 5.45-20.74 6.72-42.63-10.91-10.98-25.19-18.38-40.29-24.9-35.25 17.18-53.16 52.73-47 113.73 91.49 135.03 227.73-58.05 161.15-163.46 65.88-70.78-18.05-144.96-23.51-199.02zm83.93 316.28c-10.49-16.13-22.38-30.8-26.85-53.32 7.55 131.64-133.46 218.27-204.8 113.73-39.44-96.38 62.11-191.3 114.15-106.62 8.12-79.35-99.88-104.98-151.08-63.96-3.35 68.12-41.26 107.07-40.29 181.25 47.71 65.29 45.19 217.81-43.64 234.53 6.16 69.32 15.95 134.75 36.93 188.36 88.41-86.78 186.19-156.37 295.44-213.22 4.34-60.28 44.91-77.29 40.29-135.04-3.63-46.35-40.85-94.63-20.15-145.71zm533.81 1677.3c57.77 14.06 123.09 18.36 177.93-7.11 29.79-84.4 16.23-134.75 6.72-223.88-10.08-94.47 0.83-145.25-70.52-188.34-86.72-52.42-214.72-81.15-312.22-117.28-114.57-42.5-207.44-108.83-308.86-135.04-47.56 25.33-85.47 93.14-130.93 127.93-12.31 9.49-29.66 7.85-40.28 21.33-102.54 130.15 83.09 291.55 198.07 334.04 67.43 24.87 127.71 31.98 181.29 74.63-45.6 11.1-121.28-32.28-164.5-49.76-66.59 0.16-124.36-51.82-184.65-35.53-102.68 27.83-85.61 284.89-13.43 344.71 56.51 1.77 102.4 33.61 147.72 35.54 55.38 78.47 143.8 101.13 245.08 124.37 98.61 22.65 182.11 91.36 298.78 74.63 32.88-32.72 79.17-51.23 124.23-71.08 39.59-35.53 36.23-136.37 40.29-188.34-141.01-65.15-274.87-137.85-419.66-199 69.94-14.07 146.46 58.93 224.94 78.18zm251.79-92.39c16.66 25.02 45.46 37.16 63.78 60.41 151.36-23.55 262.84-67.38 392.8-120.83-114.84 110.61-317.82 127.94-416.29 255.86-4.76 65.74-6.87 116.39 13.42 170.58 236.41 34.65 504.98-9.92 758.74-60.41 89.11-17.77 170.24-74.18 255.15-99.5 52.04-15.55 103.09-15.7 134.29-60.42-136.26-104.83-416.85-37.31-584.16-88.84 128.98-21.91 261.57-12.29 396.14-3.56 45.62 2.97 83.1 13.04 114.16-10.65-54.7-77.15-175-84.85-235-156.37 93.58 9.63 166.46 87.95 265.21 92.4 5.88-44.12-9.8-65.45-23.5-88.84-84.64-39.09-203.68-151.77-305.5-138.6-63.79 8.3-131.78 77-181.3 106.62-34.69 20.72-73.29 38.64-114.13 42.64-2.67-21.76 16.76-20.14 30.19-24.88 71.36-58.34 147.44-111.64 194.74-195.46-17.22-80.1-51.07-142.6-73.87-216.78-57.49-31.38-107.58-80.23-177.93-78.18-34.13 40.88-52.04 98.93-87.28 138.61-146.32 39.54-237.11 156.35-406.24 159.91-9.09 60.12-45.59 119.79-40.29 184.79 3.93 48.42 39.59 87.07 26.87 131.5zm2017.7-963.05c-35.4-134.16-137.79-278.67-238.37-348.28-24.19-16.72-54.28-24.73-77.21 0-28.25 119.8-8.82 280.74 107.42 291.42-2.94 18.21-16.21 25.47-23.5 39.09-64.06-21.31-133.72 44.12-177.93 88.84-98.2 99.36-231.23 251.72-251.78 422.89-17.22 143.03-1.98 303.54 63.77 405.11 13.16 10.96 24.35 23.99 36.94 35.55 211.65 4.73 384.82-35.84 483.44-195.46 88.12-142.74 122.96-367.21 141-554.38-30.78-74.04-80.56-127.93-117.51-195.45 12.18-15.99 34.01 11.86 53.73 10.67zm-933.32 565.02c-42.53-105.57-106.44-231.72-198.08-316.27-26.14-24.14-56.36-58.05-83.93-74.63-49.66-29.9-198.07-68.26-208.14 10.66 144.78 146.45 330.83 249.07 490.15 380.24zm-305.51-124.38c30.36 51.84 19.59 119.79 47.01 167.03 20.13 34.65 100.72 77.74 147.71 106.61 58.06 35.54 114.44 49.9 157.8 95.95h6.7c-48.11-199-197.79-290.5-359.22-369.59zm124.22-348.24c138.07 18.34 269.7 92.97 365.94 163.46-31.89-58.03-167.01-116.97-255.16-145.7-59.16-19.26-123.92-46.04-181.29-53.31 4.49 41.61 36.95 31.1 70.51 35.55zm120.87-476.21c-116.81-24.43-215.56-86.91-342.45-88.83 15.38 39.08 72.61 23.67 107.43 31.97 179.62 42.5 322.16 142.47 470.02 227.45 104.78 60.25 197.66 143.77 292.08 209.66 0.83 3.85 6.71 2.37 6.71 7.11 2.66-1.93 5.46-3.71 10.08-3.55-155.13-155.63-356.44-262.38-543.87-383.81zm550.58 358.93c3.92 0.6 6.03-0.75 6.72-3.56-100.16-115.06-266.91-238.24-406.23-316.27-147.73-82.77-314.32-157.69-500.23-159.92 3.78 26.37 45.47 11.84 60.43 14.22 54.98 8.59 119.89 37.3 177.94 56.85 174.86 58.77 314.18 154.89 453.22 248.75 70.92 47.99 141.14 104.24 208.15 159.93zm-188-81.74c-56.38-38.21-114.57-79.65-177.95-113.71-167.57-90.18-311.51-217.52-527.08-206.12 26.03 27.11 59.45 17.19 90.66 21.31 100.56 13.48 207.45 63.99 295.43 110.18 121.42 63.67 243.69 141.85 352.5 230.99 38.62 31.53 87.02 63.97 110.79 92.39h10.09c-29.66-57.76-95.28-94.91-154.44-135.04zm-701.67-284.3c183 22.77 339.06 99.67 480.7 177.89l0.14-0.27c-137.57-83.91-297.57-185.78-480.84-177.62zm812.45 433.56c-147.01-158.58-385.8-260.45-584.15-366.02-75.27-11.56-140.59-52.58-228.3-39.1 48.67 33.16 106.6 28.42 157.79 42.64 50.23 13.92 98.06 35.39 144.36 60.41 93.3 50.35 191.38 79.96 275.3 135.03 81.14 53.32 160.16 128.7 238.37 174.15 0-3.56-2.66-4.3-3.37-7.11zm-261.86-113.72c33.02 17.47 56.24 46.49 93.86 60.41-100.57-79.21-230.95-160.21-385.94-216.77-72.6-26.51-179.47-95.51-258.51-53.3 216.83 29.9 380.76 120.23 550.59 209.66zm-547.22-181.25c2.09 38.95 57.48 21.33 87.27 24.89 117.52 14.37 234.18 73.14 332.38 110.17-107.58-74.94-271.81-126.46-419.65-135.06zm77.21-53.28c92.47 13.17 192.9 68.56 268.58 95.94-77.64-59.98-216.27-124.08-349.16-113.71 19.86 26.78 55.4 14.2 80.58 17.77zm275.28 92.39c154.43 92.38 312.66 180.78 446.51 294.94 4.35-1.17 5.34-6.21 10.08-7.09-138.06-110.92-273.75-224.34-456.59-287.85zm315.66 218.53-0.67 0.49c39.19 31.25 83.13 74.08 124.81 90.14-38.5-33.25-76.29-67.25-124.14-90.63zm-661.45-218.53c6.73 12.57 4.62 12.42 6.73 28.41 301.72 19.69 545.95 161.1 735.22 323.4 5.45 1.04 5.75-3.42 10.07-3.55-190.37-177.4-441.61-331.54-752.02-348.26zm90.65 71.05c214.3 39.1 408.32 155.78 574.1 248.77-150.53-151.46-392.67-250.37-654.68-284.3 2.11 46.21 53.02 30.51 80.58 35.53zm-50.36 10.68c42.95 27.97 116.81 23.25 167.86 42.64-49.37-21.17-99.73-41.31-167.86-42.64zm392.8 127.93c101.83 50.94 196.12 128.81 288.73 177.68-77.23-79.37-183.39-128.07-288.73-177.68zm-369.29-99.51c-3.23 22.37 17.2 19.85 16.77 39.1 258.79 30.51 465.27 135.34 621.1 262.97-160.87-147.32-367.33-257.18-637.87-302.07zm33.56 53.3c-5.74 14.53 11.48 32 13.43 49.77 237.11 13.32 407.34 127.77 560.66 241.66 10.06-2.23 9.37-16.15 16.79-21.33-142.13-147.64-357.69-229.96-590.88-270.1zm23.5-458.41c271.37 62.93 551.29 245.21 741.95 419.33 11.34 10.37 20.28 33.32 33.58 46.21 4.48-1.19 5.31-6.23 10.06-7.13-3.9-32.57-34.82-36.56-40.28-67.5-229.4-205.23-506.95-377.57-859.44-440.66-25.75 2.36-45.34-1.78-63.8-7.11 22.39 60.86 103.38 39.53 177.93 56.86zm-46.99-49.75c237.11 44.41 464.26 158.59 631.16 291.41 74.4 59.21 151.9 110.44 201.42 184.78 3.23-0.16 2.67-4.3 3.36-7.11-60.7-116.97-166.6-190.27-282.01-262.97-91.48-57.6-194.99-125.56-282.01-159.92-119.46-47.09-284.52-89.86-406.22-85.29 35.96 35.99 89.11 30.66 134.3 39.1zm590.88 810.23c-153.19-109.12-325.52-230.23-547.24-234.53 42.94 46.94 110.93 43.09 164.5 60.41 142.82 46.19 266.77 108.09 359.22 209.65 7.7-11.99 21.97-17.01 23.52-35.53zm-463.3-142.14c23.63 29.47 38.6 35.68 83.92 46.19 128.97 30.06 240.88 110.04 342.43 170.58-104.22-110.17-254.44-190.11-426.35-216.77zm46.99 56.87c9.22 15.1 21.13 27.38 30.21 42.64 136.53 24.86 227.74 97.71 329.01 159.9 4.63-5.76 2.8-18.36 10.07-21.33-94.98-90.16-222.69-145.68-369.29-181.21zm47 56.86c9.37 22.05 26.44 35.97 36.92 56.85 107.86 17.46 187.88 83.07 265.23 120.82-69.23-92.54-186.88-133.85-302.15-177.67zm60.44 81.71c54.83 61.61 169.67 59.69 218.21 127.95 6.99 1.47 8.95-2.38 13.43-3.55-60.01-62.48-135.7-109.14-231.64-124.4zm36.92 42.64c29.09 56.88 129.53 87.97 188.01 113.73-36.51-65.6-121.56-79.8-188.01-113.73zm-621.09-319.82c-17.33-192.64-62.95-385.86-177.93-486.86-16.08 212.79 97.92 348.58 171.22 490.41 3.91 0.61 6-0.72 6.71-3.55zm-490.16 525.93c106.88 70.36 238.37-39.08 332.38-92.38 36.78-20.88 77.63-23.53 94-42.64 26.15-30.5 61.39-166.42 53.71-220.33-9.24-65.29-65.04-171.75-107.42-195.45-78.76-44.14-165.77 16.29-238.37 46.2-36.66-19.56-95.83 2.94-124.22 24.88-28.4 137.11-46.02 324.84-10.08 479.72zm-3.36-554.35c24.07 0.58 46.73 2.66 60.43 14.22 46.72-20.88 118.49-10.82 137.65-67.54 41.96-17.17 86.87-31.23 110.8-67.52 6.57-119.49-56.8-234.67-67.15-351.8-7.14-80.99-15.39-113.28-70.51-145.7-13.98-8.3-34.26-9.63-50.36-17.77-18.6-9.5-41.96-37.33-57.07-39.11-47.27-5.76-96.66 53.77-127.56 78.19 7.4 210.99-47.43 473.96 63.77 597.03zm-466.65-309.18c-4.06 58.93 1.12 122.6 40.28 152.81 93.59 25.18 189 92.25 295.45 60.41 22.79-208.77 116.52-575.25-120.88-589.9-53.42-3.26-103.92 10.35-144.34 24.88-93.31 74.32-59.75 195-70.51 351.8zm-70.5-337.6c-5.45-5.78-13.99 3.13-26.86 0-7.82 28.13-8.11 85.29 6.71 127.93 26.58-38.34 19.72-78.03 20.15-127.93zm-73.86 607.7c-19.02-188.52 43.93-341.47 0-518.85-43.64 56.11-74.56 116.68-80.57 191.89-10.07 125.12 66.58 328.29-23.5 419.34-1.12 50.04-4.35 125.12 6.72 181.23 202.26-75.21 182.68-404.67 187.99-650.31-78.46 92.83-45.18 267.71-90.64 376.7zm57.07 181.21c-36.09 162.15-17.48 259.86 114.15 309.18 107.29 40.11 247.31 128.22 342.44 88.85 8.95-97.58-10.08-190.41-6.72-287.86 3.23-95.64 17.76-173.1-46.99-216.77-73.16-49.3-183.96-67.37-241.73-135.04-126.04-4.01-97.63 174.72-161.15 241.64zm-221.57 92.4c-8.39-47.52-4.48-89.28-6.72-135.04-31.48 66.19-66.3 128.83-77.22 216.8 34.84-20 48.96-61.92 83.94-81.76zm-83.94-149.26c-30.35 17.05-73.99 37.03-80.57 67.54 27.28-22.07 64.91-33.18 80.57-67.54zm40.3-67.5c-44.49 20.43-119.47 58.32-134.29 110.16 46.02-35.39 106.45-55.53 134.29-110.16zm23.49-49.76c-67.84 32.57-151.21 67.22-177.93 131.48 57.49-45.74 130.09-75.51 177.93-131.48zm10.08-28.42v-17.77c4.05 0.29 2.1-5.18 0 0-76.81 40.72-150.24 85-201.43 152.81 58.18-54.49 131.62-92.85 201.43-135.04zm10.07-56.86c-91.21 39.67-165.76 96.98-228.3 167.02 68.83-49.17 160.59-104.83 228.3-167.02zm-127.57 53.3c42.66-32.87 107-43.1 130.93-95.95-97.36 41.46-181.44 96.99-245.08 174.14 6.15 0.58 2.09 11.97 6.71 14.2 2.8 0.6 3.22-1.33 3.35-3.56 33.44-30.94 74.71-53.59 104.09-88.83zm-110.8 49.75c55.95-55.66 123.52-99.06 191.36-142.15 23.37-8.44 54.42-8.75 50.37-46.19-87.43 42.48-198.5 109.71-248.44 191.89 3.92 0.61 6.01-0.74 6.71-3.55zm238.37-216.78c-86.73 31.39-196.82 118.62-251.8 195.45 67.85-79.8 179.2-132.52 251.8-195.45zm3.36-39.08c-111.35 30.2-202.42 131.62-271.94 206.11 2.94 2.82 7.55 3.83 13.43 3.56 71.76-85.16 176.81-135.06 258.51-209.67zm-3.36-21.33c-36.1-13.63-72.18 25.16-104.08 49.75-59.73 46.05-137.64 93.28-174.57 159.92 87.29-75.8 164.36-162.58 278.65-209.67zm-94 24.89c-63.93 26.05-127.16 83.35-174.58 138.59 59.58-44.73 110.92-98.18 174.58-138.59zm666.54-510.12c-69.81-0.72-138.9-2.07-206.6-5.18-90.23-4.14-182.55 0.74-258.52-7.11-31.05-3.26-61.25-25.47-87.28 3.56 11.75 37.01-0.84 74.18 20.15 92.4 131.62-1.91 251.36-14.51 379.36-28.44 45.19-4.88 101.69-11.25 152.48-11.25 8.66 0 17.21 0.16 25.46 0.59 32.73 1.64 64.62 25.62 100.71 31.99 134.99 23.99 317.97-43.83 463.3-31.99 63.79 5.19 140.73 58.49 184.65-7.09-228.01-42.66-504.71-34.81-773.71-37.48zm773.71 311.09c-17.07-1.46-17.21 14.96-26.86 21.33 8.25 95.8 29.1 184.94 26.86 273.63-29.93-38.2-22.93-115.49-36.93-170.56-34.83-109.14-40.7-266.25-124.23-334.07-69.37 183.62 43.94 345.77 70.51 522.41-1.4 12.14 10.08 10.64 13.43 17.77 9.38 72.99 27.7 136.5 80.58 163.46 3.34-48.13-7.42-91.21 3.34-120.82 19.89 41.75 21.27 121.11 60.44 152.81 34.7-21.33 38.89-74.92 50.36-120.82-52.88-107.07-67-283.85-117.5-405.14zm107.43-287.83c-7 40.41-44.21 77.42-23.5 131.48 421.61 39.54 719.15 240.77 970.25 472.64-14.28-119.65 14.68-228.32-23.51-344.71-161.28 122.47-324.25-147.77-211.51-277.18-18.45-24.28-27-59.09-36.93-92.41-15.66 135.36-190.94 165.55-292.07 92.41-38.89-48.13-90.51-127.19-90.65-202.56-0.14-83.22 82.95-187.17 161.15-167.03 95.82 24.72 29.93 232.03-57.07 138.61-0.99 31.07 23.22 37.44 36.92 39.08 88.69 10.8 141.15-140.82 70.5-206.11-46.85-43.24-145.33-31.84-188 7.09-108.13 98.77-12.3 295.99-107.44 408.69-45.87 17.32-93.99 28.13-137.64 14.22-31.47-29.47-54.83-67.54-60.43-124.4-27.56 32.72-3.49 72.72-10.07 110.18zm916.53 238.09c-35.96-108.83-120.02-166.74-191.38-238.09-115.25 119.92 65.48 363.79 191.38 238.09zm-782.24-852.89c18.32 101.87-28.12 215.74-100.72 262.98-1.82 24.14-16.49 34.65-16.79 60.41 5.04 15.98 27 14.07 33.59 28.44-8.68 71.21-65.62 269.63 70.5 270.06 33.29 0.16 54.97-13.75 87.27-28.42 66.04-108.24-1.25-295.99 87.3-390.9 58.75-62.93 221.86-66.79 248.42 39.09 34.01 104.84-56.22 220.91-157.77 159.92 0.14-6.08-2.53-9.2-6.73-10.67-0.27-46.48 1.26-91.07 40.3-95.95 11.89 20-16.64 23.98-16.8 42.63 57.79 102.64 125.34-63.94 43.65-95.93-176.54 12.44-150.65 250.39-60.42 341.15 113.59 74.78 283.53 44.28 278.64-127.93-1.11-39.83-29.38-86.92-36.93-124.38-3.35-16.87 2.94-35.68 0-53.3-19.44-119.35-66.86-215.15-53.71-351.83 46.44-153.38 44.06-310.65-23.5-447.76-19.72-8.73-39.59-17.32-57.08-28.44-149.67 151.94-226.74 380.71-359.22 550.83zm466.65-2007.8c10.36 79.512 27.98 141.11 67.14 195.44 59.6-13.18 109.26-18.668 167.86-28.433-54.83-62.93-144.91-293.61-235-167.01zm943.39 3418.6c13.29-26.51-14.41-64.85-3.36-92.41 21.41 23.11 14.68 48.58 20.15 81.74 57.91-80.41-9.52-187.3-13.43-273.63-3.5-77.15 30.07-153.11 20.14-230.98-10.5-81.74-49.66-170.13-73.87-252.32-46.72-158.13-94.69-299.85-147.7-437.11 124.5 145.41 151.49 394.02 251.78 565.04 11.33-2.21 14.98-12.58 26.86-14.22-20.84-63.65-8.25-146.88-16.79-220.31-19.44-168.36-124.35-305.47-161.14-451.31 45.04 48.26 66.87 118.45 97.36 181.21 30.78 63.53 58.75 130.47 94 188.36 43.79-37.17 19.72-86.78 10.06-138.6-33.13-178.57-63.5-393.41-161.14-525.95-6-8.15-17.91-10.06-23.49-17.76-14.84-20.13-78.48-154.27-100.72-145.7-18.18 6.95-11.61 96.84-10.06 117.29 7.4 103.34 51.47 196.19 63.77 262.96-22.23 1.02-12.59-31.69-30.21-35.54 2.37-14.22 2.51-14.36 0-28.44-14.55-34.36-29.93-67.81-36.92-110.16-43.52-76.25-63.66-154.88-80.58-245.21-9.52-51.08-34.83-82.91-60.43-127.91-40.44-71.23-63.09-160.69-104.08-238.11-41.82-78.92-82.53-152.36-114.15-227.44 113.46 150 188.57 340.57 285.37 508.19 36.78-10.38 28.4-51.24 23.5-78.19-16.08-88.26-53.72-179.16-87.28-273.63-25.04-70.65-36.65-147.77-60.44-199.01-61.96-133.12-89.1-296.15-171.22-401.58-2.37 172.21 76.24 272.17 120.87 401.58-174.02-128.53-159.06-487.9-255.16-710.74-44.49-18.36-102.25-19.688-154.43-21.309-88.97 334.63 139.6 571.23 198.09 845.77-107.86-202.11-202.7-418.01-292.09-639.65 42.24-66.348 9.22-161.56-30.21-209.67-25.61-8.457-52.74-15.274-80.59-21.329-16.07 14.512-27.54 12.735-46.99 21.329-2.23-6.973-3.5-13.34-3.93-19.102-7.54-84.551 151.78-49.902 195.29-12.891-47.28-137.11-99.47-269.04-231.64-316.29-42.12 14.668-74 40.133-107.44 63.965 7.13 67.832-2.39 119.94 16.78 163.48 22.53 51.23 94.98 47.812 110.8 103.07-47.43-42.211-146.04-39.394-194.73-92.402 25.89-84.102 45.89-182.27 0-252.32-42.66-64.985-185.21-82.305-261.86-120.82-29.93 2.3633-82.12 73.145-100.72 113.73-15.94 34.785-29.23 83.648-47 127.93-27.41 68.399-65.46 108.67-73.86 177.68 24.06 44.141 29.94 112.83 40.29 176.37 13.57 84.239 35.11 159.16 117.49 154.14 48.83-2.969 107.31-41.172 147.73-63.984-88.27-123.79-45.46-329.3-97.36-472.64 44.49 49.316 60.02 141.72 73.86 216.78 22.52 122.01 79.59 234.1 104.07 366.04 9.66 52.11 19.03 106.76 30.22 159.93 25.31 120.37 115.27 216.91 144.37 330.48-61.14-51.54-78.62-163.92-151.09-191.91-47.13 35.41-70.92 95.51-120.86 127.95-118.61 36.72-182.68-80.57-302.14-71.07-111.91 8.88-217.11 72.69-282.01 152.79 12.02 54.65 31.2 155.78 97.37 156.37 49.37 0.44 99.72-42.35 147.7-49.75 58.06-8.89 127.86-10.06 191.38-10.66 117.21-0.91 167.56 63.22 261.85 106.62 44.91 20.56 74.83 59.37 117.51 63.94 100.57 10.69 263.12-69.28 285.35 78.19 16.23 29.02 39.17 50.95 53.72 81.75-1.12-74.33-27.55-177.85-33.56-277.2-45.89-150.43-120.17-270.82-157.79-430 45.46 39.39 62.38 109.27 93.99 163.47 69.81 75.37 107.02 185.24 171.22 266.53 8.82 67.09 48.4 131.93 53.29 191.17 0.57 6.35 0.71 12.42 0.43 18.49-36.79-49.9-57.35-135.78-100.72-167.03 11.2 167.78 19.3 319.85 134.3 380.26 12.02-46.94 26.43-111.94 0-152.82 2.51-28.57 2.51-55.8 0.69-82.03-10.77-157.83-90.36-274.96-124.91-408.38 28.11-5.89 14.4 59.54 40.28 67.54 27.42 121.12 108.83 216.47 130.93 341.16 6.58 37.16 0.28 75.64 6.72 113.71 17.35 103.94 73.15 200.93 80.57 312.73 82.94 99.36 69.81 300.57 130.94 422.87-85.9-86.76-75.26-275.7-174.59-348.24-13-41.91-36.49-72.71-46.99-117.29-28.26-14.37-69.67-3.69-94.01 7.11-24.61 60.28-43.79 123.93-43.65 184.81 0.15 51.95 39.18 96.52 36.95 142.13-1.13 23.98-25.18 40.27-33.59 63.96-31.75 89.59 37.08 222.72 57.08 309.18 14.54 62.93 29.79 118.91 87.29 149.26-9.66-33.46 9.65-79.37 3.36-106.62-36.94-161.41-99.17-355.37-47.01-540.16 12.6 58.21-8.11 133.71 6.72 202.56 12.58 58.34 53.3 131.35 63.78 195.47 15.81 96.52 26.16 188.03 104.09 216.76 61.96 146.44 117.07 300.13 231.64 390.92 26.59-220.04-77.77-460.06-141-646.78 53.57 27.54 54.56 141.25 97.35 191.89 78.9 238.69 150.11 485.53 235.01 717.85 34.97 37.76 42.95 97.58 70.5 156.35 15.96 33.91 56.93 75.96 63.8 113.73 15.66 86.17-22.8 188.21-23.52 273.64-0.41 56.69 20.42 111.64 13.43 163.45-12.44 91.22-77.9 157.85-77.21 238.11-45.32 70.78-133.72 106.16-171.22 188.34-31.89 69.89-38.89 153.25-87.29 216.78 4.62-64.71 0.71-114.31 0-184.79-34.12-47.39-123.79-77.89-198.07-71.07-34.56 3.1-80.15 33.16-117.51 53.29-189.4 101.73-279.9 370.48-308.86 618.35-8.95 76.25 27.7 167.31 43.65 234.54 12.17 51.52 37.77 97.58 53.71 142.14 52.74 20 98.34 47.54 151.07 67.53-33.43 24.43-121.55 10.51-184.64 21.32-54.14 25.61-80.29 80.85-134.29 106.61 27.41-61.01 85.89-89.14 107.43-156.36-15.39-31.1-22.25-71.22-40.29-99.51-146.88-11.7-226.75 42.8-345.8 92.4-115.39 47.97-224.93 81.88-335.72 120.82 168.7 30.07 334.61-1.92 483.44 31.99-279.21 15.69-641.37 47.83-933.31-7.11 0.56-46.94-6.57-64.12-13.43-103.06 58.47 23.7 107.57 91.81 191.36 92.41 175.14 1.32 336.57-59.83 486.82-131.5 100.29-47.83 206.73-82.47 285.35-131.48 86.59-54.04 123.09-139.64 137.64-255.87 5.74-45.9 10.65-132.66 3.36-181.24-13.14-88.84-125.76-138.15-218.21-145.7-75.68-6.21-154.43 28.73-231.66 46.21-79.58 17.91-166.59 23.24-248.43 46.19-140.16 39.09-286.2 85.14-412.95 120.82-63.49 71.96-62.66 225.08-60.42 348.26-28.67-28.28-11.61-80.84-13.43-120.82-2.8-64.27-35.1-119.35-46.99-170.58-28.42-12.58-67.43-13.92-83.93-39.08-169.27-33.77-333.21-87.81-510.31-120.83-94.01-17.47-176.25-42.5-231.64 24.88-77.5 94.17-156.4 292.43-97.36 444.21 12.72 32.57 103.79 141.99 127.56 156.36 185.35 111.34 471.13 171.61 708.39 131.49 18.32-22.96 45.87-32.58 63.78-60.42 18.45-28.72 68.4-180.05 70.5-88.84 1.26 58.34-29.23 136.96-6.72 184.79-295.56 1.33-640.38 84.69-936.66 110.16 147.72-44.28 292.92-69.59 449.86-110.16-63.5-1.19-133.3-44.57-208.14-46.2-31.2-0.74-63.09 12.14-94 7.11-60.86-9.92-108.28-57.75-167.86-49.75-60.16 8.14-81.7 86.62-134.29 110.16-10.08-61.6 64.9-96.98 70.5-167.02 6.15-77.74-48.68-163.92-57.08-252.31-4.33-45.9 22.8-91.81 20.15-127.93-2.8-38.06-46.87-64.26-60.43-88.85-55.95 12.74-67.01 52.56-60.43 120.83 8.53 88.1 30.07 209.52 36.92 280.74-41.54-19.99-19.02-107.8-46.99-142.15 0.84-90.02-65.89-182.57-63.79-270.08 0.98-43.53 3.07-100.09 16.78-120.82 16.93 15.25 32.88 31.54 47.01 49.75 74.84-63.23 181.7-128.37 181.29-248.76-0.14-47.09-2.38-98.61-3.36-156.36-1.4-84.25-43.64-183.76-30.21-248.76 8.67-41.91 54.41-67.82 60.42-103.06-16.08-98.91-30.21-211.43-23.5-302.07 1.96-26.2 13.71-47.37 10.08-71.06-19.73-126.76-164.92-152.07-265.23-209.67-79.73 34.65-161.7 77.58-228.29 127.93-83.65 63.23-103.93 160.37-117.51 280.74-14.96 132.38 0.84 268.16 23.51 398.02 21.4 33.01 38.47 70.63 47 117.27 39.03 58.19 97.08 96.24 137.65 152.8 0.98 12 5.32 20.44 3.36 35.55 38.88 42.93 87.14 75.95 117.5 127.92-58.05-14.81-137.37-62.78-184.65-124.38-28.4-37.02-51.62-107.19-97.36-110.16-27.28-1.78-44.2 27.1-67.15 39.09-5.59 36.73-36.37 73.15-40.28 110.17-7.28 68.55 28.82 123.34 16.78 170.58-28.95-43.98-33.57-113.73-57.07-163.48 16.51-46.93 33.85-100.24 16.78-145.7-75.39 69.89-143.1 157.25-174.57 262.97 24.9 160.96 109.81 257.05 174.57 373.14 52.74 94.47 108.7 181.24 177.95 255.87 38.18 14.06 83.09 21.02 130.92 24.88-19.58-46.95-39.72-123.65-50.35-191.91-57.08-81.73-106.32-171.76-171.22-245.2 94.42 46.94 154.85 160.66 238.36 230.99 47.84 61.89 80.29 140.07 117.5 213.22 10.35 51.83 24.62 114.6 33.57 156.36 37.91 63.67 84.36 118.16 140.03 163.02 68.12 55.24 149.82 95.96 246.06 121.27 62.81 43.24 146.17 64.71 214.3 102.32 15.67 8.74 30.5 18.22 44.2 29.18-73.01 4.73-161.98-34.5-238.36-49.76 0.28-4.29-4.9-2.22 0 0 105.19 152.81 274.03 257.2 459.94 312.72-5.87-165.69-139.19-223.58-235.01-305.61 41.26-6.07 66.86 51.68 110.8 42.65 109.26 44.27 168.84 141.11 258.51 206.11 8.52 69.59-26.59 160.5 0 209.66 39.73-60.56 90.79-134.74 90.64-230.98-0.43-179.32 21.4-345.6 89.24-471.46 9.51-17.76 20.14-34.8 31.61-50.94 6.45 85.44-94.29 166.29-73.85 266.53 7.13 34.8 47.13 42.49 57.08 81.73 31.34-70.03 28.11-150.44 0-223.88 43.08 20.74 68.53 60.12 87.29 106.61 19.86-37.31 37.62-99.35 40.27-152.8 34.97 21.02 34.29 79.8 57.07 113.71 11.61-20.88 22.95-42.05 36.94-60.42-12.04-58.33-49.94-89.28-63.79-145.69 82.27 51.52 124.91 144.96 144.36 262.98 23.36-17.78 52.73-40.58 77.21-46.21-56.92 102.17 18.04 224.92 6.72 337.6 25.46 20.44 50.78 41.02 77.22 60.41 35.67-49.89 61.97-109.71 90.65-167.01 87.15-54.65 158.77-144.53 251.79-181.25-61.83 85-148.27 143.93-218.22 220.33-2.24 25.02-8.67 39.83-3.36 60.42 54.41-30.06 107.16-27.7 174.57-39.1 180.73-30.35 342.02-144.07 463.3-245.19 64.77-22.67 123.81-70.2 141.01-131.5-23.78 4.45-52.17 4-63.78 21.32-161.29 29.77-316.99 114.46-453.24 170.58 113.03-98.31 303.13-115.05 406.23-223.88 47.42 0.6 79.87-42.64 130.93-49.75 2.39-10.81 152.89-117.12 201.43-195.45 39.03-62.93 42.12-144.66 87.29-209.67 21.68 120.38-53.71 202.41-83.93 291.4 98.91-42.19 196.13-80.7 241.73-170.57 93.43-184.2 159.05-418.6 214.85-643.22 13.58 89.44-56.08 215.74-53.71 326.94-26.3 47.38-17.06 100.98-26.86 152.81-17.62 93.72-100.72 167.46-107.43 270.07 77.36-3.4 107.72-55.96 151.08-103.06 81.98-88.98 141.56-218.84 218.21-355.36 61.56-109.57 136.25-226.11 174.59-326.94 2.51-6.51 6.43-31.09 6.72-35.54 15.38-217.65-72.19-370.61-107.44-554.37-53.16 30.94-107.57 129.42-94.01 209.67-10.48 11.25-7.97 36.57-20.14 46.2 0.98-73.3 5.87-165.25 3.35-234.55 11.48-18.65 18.75-41.75 30.23-60.42 18.04-117.11 116.8-148.8 141-259.4 72.03-181.99-36.79-368.69-97.36-515.29zm164.51 838.67c65.63 151.84 94.78 342.44 109.36 535.39 0.41 1.98 0.75 3.97 0.97 5.87 0.22 1.86 0.02 3.59-0.18 5.34 7.8 107.22 11.3 214.94 14.05 316.94 44.35-334.48-31.04-728.21-164.5-952.39-5.87 38.95 25.74 60.57 40.3 88.85zm104.08 259.42c-9.38-128.97-71.23-290.67-137.67-394.46 52.46 124.52 106.89 246.98 137.67 394.46zm-130.94-433.56c114 234.4 214.3 552.01 204.79 842.23-19.24 587.97-254.16 979.26-504.47 1332.7-0.57 1.93-1.12 3.81-1.41 5.39-0.31 1.72-0.71 3.41-1.03 5.11 37.96-41.1 108.01-105.45 147.69-159.8 82.52-112.84 158.2-253.95 221.57-408.68 64.91-158.58 126.18-322.79 147.72-490.41 31.19-241.65 4.34-427.92-40.28-657.43-37.08-190.86-78.35-351.96-174.58-469.09zm-19.45 1839.2 0.27 0.2c25.83-35.23 47.23-75.12 61.49-122.6l-0.49-0.37c-20.37 40.99-44.18 78.33-61.27 122.77zm111.36-1724.3-0.66 0.57c117.07 323.48 195.96 742.58 120.92 1121.2l0.36 0.16c113.57-361.33 36.64-854.74-110.77-1131.7l-0.26 0.26-0.32 0.92c0.97 9.26-3.52 13.67-9.27 8.6zm1036.1-324.51c-5.6-11.84-29.24-19.53-43.65-10.65 13.15 5.02 29.65 6.53 43.65 10.65 24.33 29.18 43.92 47.69 40.28 99.51-15.38 219.15-376.57 317.32-533.79 181.24-49.38-81.74 20.42-210.26 104.06-191.9 52.88 11.7 52.75 96.83-3.36 106.61 85.35 47.68 140.74-99.64 83.94-167.02-30.77-7.11-51.75-46.21-100.71-39.09-171.78 24.87-133.31 483.3-389.46 344.7-113.44-61.29-94.82-254.97-6.7-334.05 46.72-40.55 107.15-66.62 151.07-110.16 101.98-110.76 20.29-284.43 16.8-433.55-1.68-71.8 23.91-120.96 40.28-181.23 47.84-60.26 91.21-123.19 184.65-103.07 138.34 29.77 6.3 332.13-80.57 177.7 9.78-16.74 1.39-35.69 10.07-56.86-67.57 72.85 33.98 162.74 107.42 142.13 15.54-8.42 29.52-18.5 47.01-24.86 140.87-160.96 6.01-450.73-204.78-376.68-42.95 27.97-79.18 63.06-114.15 99.49-69.81 152.81-19.73 305.47-40.29 476.19-9.53 78.77-58.06 121.58-130.93 117.29-99.18-5.79-186.75-137.27-137.65-245.22 22.51-49.61 105.19-66.64 114.15 7.11 21.54-24.86-4.06-73.14-20.16-99.49-89.23-55.1-181.28 6.5-188 103.04-7.83 113.87 88.4 162.29 117.5 238.11 51.34 133.26-110.92 167.46-171.21 92.38 27.82 118.77 36.73 219.09-3.01 326.59 2.05 2.09 3.9 4.53 5.55 7.36l0.82 0.1c222.26 307.69 315.43 842.23 208.14 1275.8-29.24 115.21-75.68 209.23-110.79 309.17-21.12 59.97-37.76 121.56-60.43 177.69-52.6 130.3-139.89 247.72-218.21 351.81-159.61 211.89-312.23 430.44-503.6 607.69-192.33 178.12-422.72 301.46-654.66 447.75-86.16 35.54-174.15 69.16-258.5 106.62-54.55 10.8-116.8 13.77-161.15 35.53 2.24 114.76 9.64 272.15-33.58 369.59 28.55 11.99 13.72 46.93 26.87 74.63 42.24 88.98 174.29 120.23 241.71 42.64 49.11-56.42 32.47-211.74-57.07-181.24 23.23 5.03 40.57 16.29 53.71 31.98 25.18 165.55-157.21 110.17-177.92 14.22-27.14-160.96 67.14-252.31 194.71-238.1 173.47 52.71 101.28 264.02 94.01 437.11-2.8 65.59 27.7 161.98 60.43 209.66 53.58 78.03 228.14 161.99 295.43 31.98 35.82-76.41 3.93-173.68-73.85-167.02 30.63 22.95 69.37 54.49 53.71 117.27-15.25 61.01-112.18 49.31-161.14 24.87-88.13-44.12-139.33-293.76-83.93-405.11 16.5-33.17 43.64-47.83 63.78-81.74 50.22-10.81 93.17-46.64 137.65-56.85 145.61-33.62 263.26 109.72 235.01 266.52-8.12 13.92-17.07 26.95-26.86 39.1-93.58 33.16-137.93-35.84-167.86-92.4-30.77 159.91 161.7 176.79 231.64 113.72 72.46-65.31 76.94-190.28 30.23-284.3-61.57-124.08-178.92-205.22-167.87-373.14 3.07-47.38 33.16-103.79 77.21-110.17 236.97 1.94 139.19 391.06 288.73 522.4 65.75 57.74 207.17 117.71 312.22 42.64 73.03-52.12 97.08-225.65-20.14-252.31 91.49 76.26 11.61 224.48-117.51 209.67-87.57-10.07-144.35-68.7-194.71-124.38-27.13-92.54-17.07-168.94 26.85-220.33 48.82-57.15 114.71-39.08 188.01-46.19 148.97-14.52 164.92-256.17-3.36-252.32 49.94 18.07 60.28 141.56 6.72 177.69-92.76 62.48-198.08-20.73-221.58-117.27-25.61-105.43 23.5-199.6 104.07-252.31 143.66-64.71 174.72 120.08 312.22 113.71 63.66-2.96 121-60.41 194.73-56.86 62.25 3.11 116.09 37.46 137.64 85.29 65.33 144.82-118.48 254.83-174.58 120.83 0 45.01 39.73 78.62 73.87 99.51 243.11 6.36 218.35-364.41 40.28-401.57-113.3-23.55-261.44 31.24-318.94-63.97-13.43-59.82-25.59-113.58-20.15-170.57 13.99-144.23 164.79-179.62 245.08-71.08 91.07 17.47 148.99-65.89 124.22-149.26-17.62 50.2-48.53 99.81-110.79 81.73-122.95-35.83-86.16-303.09 13.44-351.8 23.78-3.27 45.46-8.75 63.78-17.78 311.67-15.54 79.87 442.14 288.73 529.5 97.35 7.85 164.92-115.04 97.35-184.79-7.68 12-1.11 39.09-3.36 56.86-26.71 56.42-110.5 30.65-134.27-10.66-40.72-121.86 24.74-271.26 117.48-323.39 81.42-45.75 217.95-37.9 295.45 0 103.23 50.5 168.71 198.12 87.29 316.28-40.99 53.46-101.71 59.23-148.13 35.68-56.38-28.28-91.92-99.79-46.59-181.38-100.72 65.89-33.85 210.56 33.56 270.09 38.89 14.35 81 19.39 127.58 17.76 190.52-52.26 225.08-299.84 134.29-465.53-74.68-136.23-234.45-110.91-416.3-117.27-93.86-3.26-195.28-40.13-231.65-106.62-43.5-79.36-27.27-248.16 73.87-266.52 118.48-21.47 144.64 112.83 265.22 60.41 118.21-17.03 188.15-293.03 26.86-316.28 99.47 78.63 13.98 250.1-144.36 216.78-45.18-9.48-108.28-74.48-120.86-103.06-86.45-196.34 80.43-407.49 275.29-380.24 105.89 14.8 211.37 69.45 322.29 42.64 123.38-29.76 192.07-130.59 245.08-245.2 11.19-29.92 16.22-58.94 16.22-86.33 0-180.79-217.79-288.74-281.43-102.01 30.62-79.38 175.95-59.98 201.42 17.76 6.01 57.44 4.62 98.46-16.78 145.7-35.82 79.07-126.74 153.55-204.8 177.69-126.02 39.09-265.78 12.29-318.93-92.4-4.06-26.95-2.66-51.82-10.06-67.52 20.42-110.31 189.53-194.86 87.27-305.62-20.83-0.73-40.55-0.3-53.72 7.11 16.8 4.74 34.85 8.14 47.01 17.77 64.07 128.82-139.74 159.18-164.5 42.64-15.4-75.66 23.08-160.21 67.14-213.22 78.9-90.62 211.79-82.47 345.65-95.8 19.18-1.77 38.19-4.15 57.22-7.25 142.69-23.25 225.49-138.01 248.43-266.53 12.31-69.14-28.95-170.86-100.71-174.14"/><path d="m4835.5 6506.5-0.04 0.45-0.33-0.36z"/><path d="m4029.8 685.56c3.91-2.969 8.95-4.746 16.79-3.555-0.56 152.05 66.16 282.52 107.43 398.01-74.84-84.256-112.2-208.18-154.43-326.95 15.24-17.032 16.36-49.004 30.21-67.5"/><path d="m3717.6 6172.4c-146.45-36.86-217.94 81.73-308.86 145.7 27.56-64.4 94.7-86.92 117.51-156.36-63.8-21.32-124.64-45.75-204.8-49.75-27.13-36.57-119.88-22.22-137.65-56.86 151.36-9.92 302.16 50.93 466.66 31.98 59.32-6.8 130.23-10.95 191.36-14.21 106.46-5.63 203.39-26.8 295.44-39.09-185.35 144.96-437 238.69-658.01 334.05 74.98-67.52 181.98-119.94 238.35-195.46"/><path d="m3029.3 7178.1c63.37-10.66 100.43-112.67 157.79-106.6 50.78 5.33 77.36 113.71 161.15 63.96-25.45 71.22-103.11 19.84-141-3.55-54.56 37.75-116.95 46.64-181.3 71.07-2.65-12.29 5.04-13.62 3.36-24.88"/><path d="m2673.5 6197.3c-49.1 6.07-105.76-7.85-151.08 14.21 100.44 52.42 194.44 111.65 278.64 181.24-25.87 10.95-42.8-16.73-60.42-24.87-90.79-42.21-199.48-109.43-308.87-131.49-73.3-14.8-145.91 2.66-231.65-3.55-65.74-4.9-126.31-53.9-188-74.63-25.45-8.59-49.65-2.81-69.1-19.7-2.8-2.36-5.6-5.32-8.12-8.73 102.82 12.43 213.05 29.17 332.37 21.32 88.82-5.92 181.7 7.4 271.95-3.55 117.21-14.22 236.25-40.72 335.72-56.86 15.79-2.52 53.42-19.25 60.42 10.66-96.8-17.18-170.8 84.55-261.86 95.95"/><path d="m3442.3 2494.4c-236.83 13.18-639.54 26.07-929.96 31.99 45.62-12.31 82.68-11.86 124.22-28.44-81.83-11.11-230.1 7.54-318.93-10.66 128.13-10.06 281.45-42.05 426.36-53.3 76.1-5.92 157.52-21.47 228.3-10.67-47.42 20.59-116.66 6.53-164.5 39.1 230.8 0.59 448.89-15.84 634.51 31.98"/><path d="m1629.4 1438.9c-16.79 54.33-23.5 119.92-63.79 152.79 51.75-156.35 46.58-352.83 157.79-447.75-11.06 47.54-32.04 84.55-36.93 138.59-22.66 45.45-39.87 100.84-57.07 156.37"/><path d="m4846.9 6067.4c1.93 12.61-8.62 36.99-13.23 49.02-5 13.11-10.45 26.15-14.03 39.83-2.95 11.32-6.12 21.96-9.44 33.04-1.66 5.55-7.19 21.03-14.16 25.75-5.4 7.58-16.44 20.52-22.81 12.19-3.31-4.28 1.1-16.73 2.7-21.1 2.18-5.94 5.02-11.9 7.02-17.68l0.3-1.04c2.8-8.47 4.68-18.16 8.41-25.84 4.39-9.09 11-17.59 15.74-26.8 1.5-2.9 3.2-5.7 4.86-8.53 3.18-5.4 6.45-10.79 9.38-16.44 5.69-10.95 13.25-40.11 25.26-42.4"/><path d="m4835.1 6506.6 0.33 0.36c1.24 1.34 2.19 3.34 2.67 6.3 1.66 10.46-5.19 25.71-14.54 31.68l0.48-0.19-0.56 0.24c-1.53 0.96-3.11 1.65-4.73 2.05-51.1 20.53 2.07-53.78 16.35-40.44"/></g></g></svg>
